<?xml version="1.0" encoding="UTF-8" standalone="no"?>
<!DOCTYPE svg PUBLIC "-//W3C//DTD SVG 1.1//EN"
 "http://www.w3.org/Graphics/SVG/1.1/DTD/svg11.dtd">
<!-- Generated by graphviz version 2.26.3 (20100126.1600)
 -->
<!-- Title: G Pages: 1 -->
<svg width="462pt" height="2774pt"
 viewBox="0.00 0.00 462.00 2774.00" xmlns="http://www.w3.org/2000/svg" xmlns:xlink="http://www.w3.org/1999/xlink">
<g id="graph1" class="graph" transform="scale(1 1) rotate(0) translate(4 2770)">
<title>G</title>
<polygon fill="white" stroke="white" points="-4,5 -4,-2770 459,-2770 459,5 -4,5"/>
<g id="graph2" class="cluster"><title>cluster_Global</title>
<polyline fill="none" stroke="gray" points="20,-44 434,-44 "/>
<path fill="none" stroke="gray" d="M434,-44C440,-44 446,-50 446,-56"/>
<polyline fill="none" stroke="gray" points="446,-56 446,-2710 "/>
<path fill="none" stroke="gray" d="M446,-2710C446,-2716 440,-2722 434,-2722"/>
<polyline fill="none" stroke="gray" points="434,-2722 20,-2722 "/>
<path fill="none" stroke="gray" d="M20,-2722C14,-2722 8,-2716 8,-2710"/>
<polyline fill="none" stroke="gray" points="8,-2710 8,-56 "/>
<path fill="none" stroke="gray" d="M8,-56C8,-50 14,-44 20,-44"/>
<text text-anchor="middle" x="227" y="-2708.1" font-family="Times Roman,serif" font-size="11.00" fill="gray">Global</text>
</g>
<g id="graph3" class="cluster"><title>cluster_\LibMelanie</title>
<polyline fill="none" stroke="gray" points="28,-52 426,-52 "/>
<path fill="none" stroke="gray" d="M426,-52C432,-52 438,-58 438,-64"/>
<polyline fill="none" stroke="gray" points="438,-64 438,-2680 "/>
<path fill="none" stroke="gray" d="M438,-2680C438,-2686 432,-2692 426,-2692"/>
<polyline fill="none" stroke="gray" points="426,-2692 28,-2692 "/>
<path fill="none" stroke="gray" d="M28,-2692C22,-2692 16,-2686 16,-2680"/>
<polyline fill="none" stroke="gray" points="16,-2680 16,-64 "/>
<path fill="none" stroke="gray" d="M16,-64C16,-58 22,-52 28,-52"/>
<text text-anchor="middle" x="227" y="-2678.1" font-family="Times Roman,serif" font-size="11.00" fill="gray">LibMelanie</text>
</g>
<g id="graph4" class="cluster"><title>cluster_\LibMelanie\Api</title>
<polyline fill="none" stroke="gray" points="53,-1794 371,-1794 "/>
<path fill="none" stroke="gray" d="M371,-1794C377,-1794 383,-1800 383,-1806"/>
<polyline fill="none" stroke="gray" points="383,-1806 383,-2650 "/>
<path fill="none" stroke="gray" d="M383,-2650C383,-2656 377,-2662 371,-2662"/>
<polyline fill="none" stroke="gray" points="371,-2662 53,-2662 "/>
<path fill="none" stroke="gray" d="M53,-2662C47,-2662 41,-2656 41,-2650"/>
<polyline fill="none" stroke="gray" points="41,-2650 41,-1806 "/>
<path fill="none" stroke="gray" d="M41,-1806C41,-1800 47,-1794 53,-1794"/>
<text text-anchor="middle" x="212" y="-2648.1" font-family="Times Roman,serif" font-size="11.00" fill="gray">Api</text>
</g>
<g id="graph5" class="cluster"><title>cluster_\LibMelanie\Api\Melanie2</title>
<polyline fill="none" stroke="gray" points="61,-1802 363,-1802 "/>
<path fill="none" stroke="gray" d="M363,-1802C369,-1802 375,-1808 375,-1814"/>
<polyline fill="none" stroke="gray" points="375,-1814 375,-2620 "/>
<path fill="none" stroke="gray" d="M375,-2620C375,-2626 369,-2632 363,-2632"/>
<polyline fill="none" stroke="gray" points="363,-2632 61,-2632 "/>
<path fill="none" stroke="gray" d="M61,-2632C55,-2632 49,-2626 49,-2620"/>
<polyline fill="none" stroke="gray" points="49,-2620 49,-1814 "/>
<path fill="none" stroke="gray" d="M49,-1814C49,-1808 55,-1802 61,-1802"/>
<text text-anchor="middle" x="212" y="-2618.1" font-family="Times Roman,serif" font-size="11.00" fill="gray">Melanie2</text>
</g>
<g id="graph6" class="cluster"><title>cluster_\LibMelanie\Objects</title>
<polyline fill="none" stroke="gray" points="260,-1334 380,-1334 "/>
<path fill="none" stroke="gray" d="M380,-1334C386,-1334 392,-1340 392,-1346"/>
<polyline fill="none" stroke="gray" points="392,-1346 392,-1774 "/>
<path fill="none" stroke="gray" d="M392,-1774C392,-1780 386,-1786 380,-1786"/>
<polyline fill="none" stroke="gray" points="380,-1786 260,-1786 "/>
<path fill="none" stroke="gray" d="M260,-1786C254,-1786 248,-1780 248,-1774"/>
<polyline fill="none" stroke="gray" points="248,-1774 248,-1346 "/>
<path fill="none" stroke="gray" d="M248,-1346C248,-1340 254,-1334 260,-1334"/>
<text text-anchor="middle" x="320" y="-1772.1" font-family="Times Roman,serif" font-size="11.00" fill="gray">Objects</text>
</g>
<g id="graph7" class="cluster"><title>cluster_\LibMelanie\Sql</title>
<polyline fill="none" stroke="gray" points="241,-766 399,-766 "/>
<path fill="none" stroke="gray" d="M399,-766C405,-766 411,-772 411,-778"/>
<polyline fill="none" stroke="gray" points="411,-778 411,-1314 "/>
<path fill="none" stroke="gray" d="M411,-1314C411,-1320 405,-1326 399,-1326"/>
<polyline fill="none" stroke="gray" points="399,-1326 241,-1326 "/>
<path fill="none" stroke="gray" d="M241,-1326C235,-1326 229,-1320 229,-1314"/>
<polyline fill="none" stroke="gray" points="229,-1314 229,-778 "/>
<path fill="none" stroke="gray" d="M229,-778C229,-772 235,-766 241,-766"/>
<text text-anchor="middle" x="320" y="-1312.1" font-family="Times Roman,serif" font-size="11.00" fill="gray">Sql</text>
</g>
<g id="graph8" class="cluster"><title>cluster_\LibMelanie\Ldap</title>
<polyline fill="none" stroke="gray" points="281,-630 359,-630 "/>
<path fill="none" stroke="gray" d="M359,-630C365,-630 371,-636 371,-642"/>
<polyline fill="none" stroke="gray" points="371,-642 371,-746 "/>
<path fill="none" stroke="gray" d="M371,-746C371,-752 365,-758 359,-758"/>
<polyline fill="none" stroke="gray" points="359,-758 281,-758 "/>
<path fill="none" stroke="gray" d="M281,-758C275,-758 269,-752 269,-746"/>
<polyline fill="none" stroke="gray" points="269,-746 269,-642 "/>
<path fill="none" stroke="gray" d="M269,-642C269,-636 275,-630 281,-630"/>
<text text-anchor="middle" x="320" y="-744.1" font-family="Times Roman,serif" font-size="11.00" fill="gray">Ldap</text>
</g>
<g id="graph9" class="cluster"><title>cluster_\LibMelanie\Log</title>
<polyline fill="none" stroke="gray" points="297,-494 343,-494 "/>
<path fill="none" stroke="gray" d="M343,-494C349,-494 355,-500 355,-506"/>
<polyline fill="none" stroke="gray" points="355,-506 355,-610 "/>
<path fill="none" stroke="gray" d="M355,-610C355,-616 349,-622 343,-622"/>
<polyline fill="none" stroke="gray" points="343,-622 297,-622 "/>
<path fill="none" stroke="gray" d="M297,-622C291,-622 285,-616 285,-610"/>
<polyline fill="none" stroke="gray" points="285,-610 285,-506 "/>
<path fill="none" stroke="gray" d="M285,-506C285,-500 291,-494 297,-494"/>
<text text-anchor="middle" x="320" y="-608.1" font-family="Times Roman,serif" font-size="11.00" fill="gray">Log</text>
</g>
<g id="graph10" class="cluster"><title>cluster_\LibMelanie\Exceptions</title>
<polyline fill="none" stroke="gray" points="222,-142 418,-142 "/>
<path fill="none" stroke="gray" d="M418,-142C424,-142 430,-148 430,-154"/>
<polyline fill="none" stroke="gray" points="430,-154 430,-474 "/>
<path fill="none" stroke="gray" d="M430,-474C430,-480 424,-486 418,-486"/>
<polyline fill="none" stroke="gray" points="418,-486 222,-486 "/>
<path fill="none" stroke="gray" d="M222,-486C216,-486 210,-480 210,-474"/>
<polyline fill="none" stroke="gray" points="210,-474 210,-154 "/>
<path fill="none" stroke="gray" d="M210,-154C210,-148 216,-142 222,-142"/>
<text text-anchor="middle" x="320" y="-472.1" font-family="Times Roman,serif" font-size="11.00" fill="gray">Exceptions</text>
</g>
<g id="graph11" class="cluster"><title>cluster_\LibMelanie\Lib</title>
<polyline fill="none" stroke="gray" points="36,-1388 132,-1388 "/>
<path fill="none" stroke="gray" d="M132,-1388C138,-1388 144,-1394 144,-1400"/>
<polyline fill="none" stroke="gray" points="144,-1400 144,-1774 "/>
<path fill="none" stroke="gray" d="M144,-1774C144,-1780 138,-1786 132,-1786"/>
<polyline fill="none" stroke="gray" points="132,-1786 36,-1786 "/>
<path fill="none" stroke="gray" d="M36,-1786C30,-1786 24,-1780 24,-1774"/>
<polyline fill="none" stroke="gray" points="24,-1774 24,-1400 "/>
<path fill="none" stroke="gray" d="M24,-1400C24,-1394 30,-1388 36,-1388"/>
<text text-anchor="middle" x="84" y="-1772.1" font-family="Times Roman,serif" font-size="11.00" fill="gray">Lib</text>
</g>
<g id="graph12" class="cluster"><title>cluster_\LibMelanie\Interfaces</title>
<polyline fill="none" stroke="gray" points="40,-1306 128,-1306 "/>
<path fill="none" stroke="gray" d="M128,-1306C134,-1306 140,-1312 140,-1318"/>
<polyline fill="none" stroke="gray" points="140,-1318 140,-1368 "/>
<path fill="none" stroke="gray" d="M140,-1368C140,-1374 134,-1380 128,-1380"/>
<polyline fill="none" stroke="gray" points="128,-1380 40,-1380 "/>
<path fill="none" stroke="gray" d="M40,-1380C34,-1380 28,-1374 28,-1368"/>
<polyline fill="none" stroke="gray" points="28,-1368 28,-1318 "/>
<path fill="none" stroke="gray" d="M28,-1318C28,-1312 34,-1306 40,-1306"/>
<text text-anchor="middle" x="84" y="-1366.1" font-family="Times Roman,serif" font-size="11.00" fill="gray">Interfaces</text>
</g>
<g id="graph13" class="cluster"><title>cluster_\LibMelanie\Cache</title>
<polyline fill="none" stroke="gray" points="297,-60 343,-60 "/>
<path fill="none" stroke="gray" d="M343,-60C349,-60 355,-66 355,-72"/>
<polyline fill="none" stroke="gray" points="355,-72 355,-122 "/>
<path fill="none" stroke="gray" d="M355,-122C355,-128 349,-134 343,-134"/>
<polyline fill="none" stroke="gray" points="343,-134 297,-134 "/>
<path fill="none" stroke="gray" d="M297,-134C291,-134 285,-128 285,-122"/>
<polyline fill="none" stroke="gray" points="285,-122 285,-72 "/>
<path fill="none" stroke="gray" d="M285,-72C285,-66 291,-60 297,-60"/>
<text text-anchor="middle" x="320" y="-120.1" font-family="Times Roman,serif" font-size="11.00" fill="gray">Cache</text>
</g>
<!-- \\LibMelanie\\Api\\Melanie2\\Attachment -->
<g id="node5" class="node"><title>\\LibMelanie\\Api\\Melanie2\\Attachment</title>
<polygon fill="none" stroke="black" points="361,-2548 279,-2548 279,-2512 361,-2512 361,-2548"/>
<text text-anchor="middle" x="320" y="-2527.1" font-family="Times Roman,serif" font-size="11.00">Attachment</text>
</g>
<!-- \\LibMelanie\\Lib\\Melanie2Object -->
<g id="node60" class="node"><title>\\LibMelanie\\Lib\\Melanie2Object</title>
<polygon fill="none" stroke="black" points="135,-1648 33,-1648 33,-1612 135,-1612 135,-1648"/>
<text text-anchor="start" x="54" y="-1635.43" font-family="Times Roman,serif" font-size="11.00">«abstract»</text>
<text text-anchor="start" x="41.5" y="-1622.23" font-family="Times Roman,serif" font-size="11.00">Melanie2Object</text>
</g>
<!-- \\LibMelanie\\Api\\Melanie2\\Attachment&#45;&gt;\\LibMelanie\\Lib\\Melanie2Object -->
<g id="edge14" class="edge"><title>\\LibMelanie\\Api\\Melanie2\\Attachment&#45;&gt;\\LibMelanie\\Lib\\Melanie2Object</title>
<path fill="none" stroke="black" d="M278.842,-2531.03C255.064,-2529.27 226.65,-2522.66 210,-2503 88.1372,-2359.14 255.208,-1810.69 146,-1657 145.086,-1655.71 144.097,-1654.49 143.044,-1653.32"/>
<polygon fill="none" stroke="black" points="145.071,-1650.44 135.267,-1646.42 140.427,-1655.68 145.071,-1650.44"/>
</g>
<!-- \\LibMelanie\\Api\\Melanie2\\Share -->
<g id="node6" class="node"><title>\\LibMelanie\\Api\\Melanie2\\Share</title>
<polygon fill="none" stroke="black" points="347,-2494 293,-2494 293,-2458 347,-2458 347,-2494"/>
<text text-anchor="middle" x="320" y="-2473.1" font-family="Times Roman,serif" font-size="11.00">Share</text>
</g>
<!-- \\LibMelanie\\Api\\Melanie2\\Share&#45;&gt;\\LibMelanie\\Lib\\Melanie2Object -->
<g id="edge24" class="edge"><title>\\LibMelanie\\Api\\Melanie2\\Share&#45;&gt;\\LibMelanie\\Lib\\Melanie2Object</title>
<path fill="none" stroke="black" d="M292.837,-2477.56C267.323,-2477.4 230.143,-2472.66 210,-2449 95.525,-2314.56 248.647,-1800.67 146,-1657 145.083,-1655.72 144.091,-1654.49 143.035,-1653.33"/>
<polygon fill="none" stroke="black" points="145.055,-1650.44 135.245,-1646.44 140.419,-1655.69 145.055,-1650.44"/>
</g>
<!-- \\LibMelanie\\Api\\Melanie2\\TaskProperty -->
<g id="node7" class="node"><title>\\LibMelanie\\Api\\Melanie2\\TaskProperty</title>
<polygon fill="none" stroke="black" points="363,-2440 277,-2440 277,-2404 363,-2404 363,-2440"/>
<text text-anchor="middle" x="320" y="-2419.1" font-family="Times Roman,serif" font-size="11.00">TaskProperty</text>
</g>
<!-- \\LibMelanie\\Api\\Melanie2\\TaskProperty&#45;&gt;\\LibMelanie\\Lib\\Melanie2Object -->
<g id="edge34" class="edge"><title>\\LibMelanie\\Api\\Melanie2\\TaskProperty&#45;&gt;\\LibMelanie\\Lib\\Melanie2Object</title>
<path fill="none" stroke="black" d="M276.456,-2422.77C253.231,-2420.71 226.182,-2413.89 210,-2395 102.91,-2269.98 242.088,-1790.66 146,-1657 145.079,-1655.72 144.084,-1654.5 143.025,-1653.33"/>
<polygon fill="none" stroke="black" points="145.037,-1650.44 135.22,-1646.46 140.409,-1655.69 145.037,-1650.44"/>
</g>
<!-- \\LibMelanie\\Api\\Melanie2\\Calendar -->
<g id="node8" class="node"><title>\\LibMelanie\\Api\\Melanie2\\Calendar</title>
<polygon fill="none" stroke="black" points="352,-2386 288,-2386 288,-2350 352,-2350 352,-2386"/>
<text text-anchor="middle" x="320" y="-2365.1" font-family="Times Roman,serif" font-size="11.00">Calendar</text>
</g>
<!-- \\LibMelanie\\Api\\Melanie2\\Calendar&#45;&gt;\\LibMelanie\\Lib\\Melanie2Object -->
<g id="edge40" class="edge"><title>\\LibMelanie\\Api\\Melanie2\\Calendar&#45;&gt;\\LibMelanie\\Lib\\Melanie2Object</title>
<path fill="none" stroke="black" d="M287.424,-2369.39C262.347,-2368.54 228.879,-2362.89 210,-2341 110.292,-2225.39 235.532,-1780.65 146,-1657 145.075,-1655.72 144.076,-1654.5 143.014,-1653.34"/>
<polygon fill="none" stroke="black" points="145.016,-1650.44 135.191,-1646.48 140.399,-1655.71 145.016,-1650.44"/>
</g>
<!-- \\LibMelanie\\Api\\Melanie2\\EventProperty -->
<g id="node9" class="node"><title>\\LibMelanie\\Api\\Melanie2\\EventProperty</title>
<polygon fill="none" stroke="black" points="367,-2332 273,-2332 273,-2296 367,-2296 367,-2332"/>
<text text-anchor="middle" x="320" y="-2311.1" font-family="Times Roman,serif" font-size="11.00">EventProperty</text>
</g>
<!-- \\LibMelanie\\Api\\Melanie2\\EventProperty&#45;&gt;\\LibMelanie\\Lib\\Melanie2Object -->
<g id="edge42" class="edge"><title>\\LibMelanie\\Api\\Melanie2\\EventProperty&#45;&gt;\\LibMelanie\\Lib\\Melanie2Object</title>
<path fill="none" stroke="black" d="M272.959,-2314.31C250.62,-2311.85 225.482,-2304.81 210,-2287 117.67,-2180.8 228.98,-1770.65 146,-1657 145.07,-1655.73 144.066,-1654.51 143,-1653.35"/>
<polygon fill="none" stroke="black" points="144.991,-1650.45 135.157,-1646.5 140.387,-1655.72 144.991,-1650.45"/>
</g>
<!-- \\LibMelanie\\Api\\Melanie2\\Exception -->
<g id="node10" class="node"><title>\\LibMelanie\\Api\\Melanie2\\Exception</title>
<polygon fill="none" stroke="black" points="355,-2602 285,-2602 285,-2566 355,-2566 355,-2602"/>
<text text-anchor="middle" x="320" y="-2581.1" font-family="Times Roman,serif" font-size="11.00">Exception</text>
</g>
<!-- \\LibMelanie\\Api\\Melanie2\\Event -->
<g id="node12" class="node"><title>\\LibMelanie\\Api\\Melanie2\\Event</title>
<polygon fill="none" stroke="black" points="111,-2224 57,-2224 57,-2188 111,-2188 111,-2224"/>
<text text-anchor="middle" x="84" y="-2203.1" font-family="Times Roman,serif" font-size="11.00">Event</text>
</g>
<!-- \\LibMelanie\\Api\\Melanie2\\Exception&#45;&gt;\\LibMelanie\\Api\\Melanie2\\Event -->
<g id="edge44" class="edge"><title>\\LibMelanie\\Api\\Melanie2\\Exception&#45;&gt;\\LibMelanie\\Api\\Melanie2\\Event</title>
<path fill="none" stroke="black" d="M284.282,-2583.66C260.549,-2581.59 230.159,-2575.17 210,-2557 112.726,-2469.35 90.5082,-2301.12 85.4666,-2234.34"/>
<polygon fill="none" stroke="black" points="88.9449,-2233.9 84.7743,-2224.16 81.961,-2234.37 88.9449,-2233.9"/>
</g>
<!-- \\LibMelanie\\Api\\Melanie2\\Contact -->
<g id="node11" class="node"><title>\\LibMelanie\\Api\\Melanie2\\Contact</title>
<polygon fill="none" stroke="black" points="349,-2278 291,-2278 291,-2242 349,-2242 349,-2278"/>
<text text-anchor="middle" x="320" y="-2257.1" font-family="Times Roman,serif" font-size="11.00">Contact</text>
</g>
<!-- \\LibMelanie\\Api\\Melanie2\\Contact&#45;&gt;\\LibMelanie\\Lib\\Melanie2Object -->
<g id="edge46" class="edge"><title>\\LibMelanie\\Api\\Melanie2\\Contact&#45;&gt;\\LibMelanie\\Lib\\Melanie2Object</title>
<path fill="none" stroke="black" d="M290.05,-2261.37C264.799,-2260.77 229.717,-2255.46 210,-2233 40.0854,-2039.42 298.864,-1864.31 146,-1657 145.064,-1655.73 144.055,-1654.52 142.984,-1653.36"/>
<polygon fill="none" stroke="black" points="144.962,-1650.45 135.118,-1646.53 140.372,-1655.73 144.962,-1650.45"/>
</g>
<!-- \\LibMelanie\\Api\\Melanie2\\Event&#45;&gt;\\LibMelanie\\Lib\\Melanie2Object -->
<g id="edge50" class="edge"><title>\\LibMelanie\\Api\\Melanie2\\Event&#45;&gt;\\LibMelanie\\Lib\\Melanie2Object</title>
<path fill="none" stroke="black" d="M89.5855,-2187.6C107.053,-2128.97 160.516,-1941.01 178,-1781 183.552,-1730.19 206.966,-1708.11 178,-1666 170.031,-1654.41 157.784,-1646.55 144.736,-1641.22"/>
<polygon fill="none" stroke="black" points="145.737,-1637.86 135.143,-1637.77 143.367,-1644.45 145.737,-1637.86"/>
</g>
<!-- \\LibMelanie\\Api\\Melanie2\\UserPrefs -->
<g id="node13" class="node"><title>\\LibMelanie\\Api\\Melanie2\\UserPrefs</title>
<polygon fill="none" stroke="black" points="355,-2224 285,-2224 285,-2188 355,-2188 355,-2224"/>
<text text-anchor="middle" x="320" y="-2203.1" font-family="Times Roman,serif" font-size="11.00">UserPrefs</text>
</g>
<!-- \\LibMelanie\\Api\\Melanie2\\UserPrefs&#45;&gt;\\LibMelanie\\Lib\\Melanie2Object -->
<g id="edge52" class="edge"><title>\\LibMelanie\\Api\\Melanie2\\UserPrefs&#45;&gt;\\LibMelanie\\Lib\\Melanie2Object</title>
<path fill="none" stroke="black" d="M284.756,-2207.12C260.132,-2205.86 228.473,-2199.81 210,-2179 54.8172,-2004.21 285.781,-1844.33 146,-1657 145.057,-1655.74 144.041,-1654.53 142.964,-1653.38"/>
<polygon fill="none" stroke="black" points="144.928,-1650.45 135.07,-1646.57 140.355,-1655.75 144.928,-1650.45"/>
</g>
<!-- \\LibMelanie\\Api\\Melanie2\\Recurrence -->
<g id="node14" class="node"><title>\\LibMelanie\\Api\\Melanie2\\Recurrence</title>
<polygon fill="none" stroke="black" points="359,-2170 281,-2170 281,-2134 359,-2134 359,-2170"/>
<text text-anchor="middle" x="320" y="-2149.1" font-family="Times Roman,serif" font-size="11.00">Recurrence</text>
</g>
<!-- \\LibMelanie\\Api\\Melanie2\\Recurrence&#45;&gt;\\LibMelanie\\Lib\\Melanie2Object -->
<g id="edge56" class="edge"><title>\\LibMelanie\\Api\\Melanie2\\Recurrence&#45;&gt;\\LibMelanie\\Lib\\Melanie2Object</title>
<path fill="none" stroke="black" d="M280.877,-2152.79C256.943,-2151.06 227.631,-2144.58 210,-2125 69.5307,-1968.98 272.715,-1824.38 146,-1657 145.048,-1655.74 144.025,-1654.54 142.941,-1653.4"/>
<polygon fill="none" stroke="black" points="144.885,-1650.45 135.012,-1646.61 140.334,-1655.77 144.885,-1650.45"/>
</g>
<!-- \\LibMelanie\\Api\\Melanie2\\Taskslist -->
<g id="node15" class="node"><title>\\LibMelanie\\Api\\Melanie2\\Taskslist</title>
<polygon fill="none" stroke="black" points="351,-2116 289,-2116 289,-2080 351,-2080 351,-2116"/>
<text text-anchor="middle" x="320" y="-2095.1" font-family="Times Roman,serif" font-size="11.00">Taskslist</text>
</g>
<!-- \\LibMelanie\\Api\\Melanie2\\Taskslist&#45;&gt;\\LibMelanie\\Lib\\Melanie2Object -->
<g id="edge58" class="edge"><title>\\LibMelanie\\Api\\Melanie2\\Taskslist&#45;&gt;\\LibMelanie\\Lib\\Melanie2Object</title>
<path fill="none" stroke="black" d="M288.788,-2099.11C263.81,-2098.2 229.794,-2092.6 210,-2071 84.2185,-1933.73 259.672,-1804.46 146,-1657 145.059,-1655.78 144.052,-1654.61 142.987,-1653.5"/>
<polygon fill="none" stroke="black" points="145.107,-1650.71 135.23,-1646.87 140.56,-1656.03 145.107,-1650.71"/>
</g>
<!-- \\LibMelanie\\Api\\Melanie2\\Attendee -->
<g id="node16" class="node"><title>\\LibMelanie\\Api\\Melanie2\\Attendee</title>
<polygon fill="none" stroke="black" points="353,-2062 287,-2062 287,-2026 353,-2026 353,-2062"/>
<text text-anchor="middle" x="320" y="-2041.1" font-family="Times Roman,serif" font-size="11.00">Attendee</text>
</g>
<!-- \\LibMelanie\\Api\\Melanie2\\Attendee&#45;&gt;\\LibMelanie\\Lib\\Melanie2Object -->
<g id="edge60" class="edge"><title>\\LibMelanie\\Api\\Melanie2\\Attendee&#45;&gt;\\LibMelanie\\Lib\\Melanie2Object</title>
<path fill="none" stroke="black" d="M286.378,-2044.88C261.748,-2043.62 229.364,-2037.66 210,-2017 98.8692,-1898.43 246.662,-1784.58 146,-1657 145.046,-1655.79 144.026,-1654.63 142.95,-1653.53"/>
<polygon fill="none" stroke="black" points="145.04,-1650.71 135.138,-1646.94 140.529,-1656.06 145.04,-1650.71"/>
</g>
<!-- \\LibMelanie\\Api\\Melanie2\\Organizer -->
<g id="node17" class="node"><title>\\LibMelanie\\Api\\Melanie2\\Organizer</title>
<polygon fill="none" stroke="black" points="355,-2008 285,-2008 285,-1972 355,-1972 355,-2008"/>
<text text-anchor="middle" x="320" y="-1987.1" font-family="Times Roman,serif" font-size="11.00">Organizer</text>
</g>
<!-- \\LibMelanie\\Api\\Melanie2\\Organizer&#45;&gt;\\LibMelanie\\Lib\\Melanie2Object -->
<g id="edge66" class="edge"><title>\\LibMelanie\\Api\\Melanie2\\Organizer&#45;&gt;\\LibMelanie\\Lib\\Melanie2Object</title>
<path fill="none" stroke="black" d="M284.753,-1990.61C260.455,-1989.06 229.196,-1982.87 210,-1963 113.463,-1863.07 233.704,-1764.76 146,-1657 145.027,-1655.8 143.991,-1654.66 142.901,-1653.57"/>
<polygon fill="none" stroke="black" points="144.951,-1650.72 135.016,-1647.04 140.488,-1656.11 144.951,-1650.72"/>
</g>
<!-- \\LibMelanie\\Api\\Melanie2\\Addressbook -->
<g id="node18" class="node"><title>\\LibMelanie\\Api\\Melanie2\\Addressbook</title>
<polygon fill="none" stroke="black" points="363,-1954 277,-1954 277,-1918 363,-1918 363,-1954"/>
<text text-anchor="middle" x="320" y="-1933.1" font-family="Times Roman,serif" font-size="11.00">Addressbook</text>
</g>
<!-- \\LibMelanie\\Api\\Melanie2\\Addressbook&#45;&gt;\\LibMelanie\\Lib\\Melanie2Object -->
<g id="edge68" class="edge"><title>\\LibMelanie\\Api\\Melanie2\\Addressbook&#45;&gt;\\LibMelanie\\Lib\\Melanie2Object</title>
<path fill="none" stroke="black" d="M276.23,-1935.56C253.66,-1933.04 227.311,-1926.17 210,-1909 127.963,-1827.62 220.831,-1745.05 146,-1657 145.026,-1655.85 143.994,-1654.75 142.913,-1653.7"/>
<polygon fill="none" stroke="black" points="145.11,-1650.98 135.143,-1647.38 140.693,-1656.41 145.11,-1650.98"/>
</g>
<!-- \\LibMelanie\\Api\\Melanie2\\Task -->
<g id="node19" class="node"><title>\\LibMelanie\\Api\\Melanie2\\Task</title>
<polygon fill="none" stroke="black" points="347,-1900 293,-1900 293,-1864 347,-1864 347,-1900"/>
<text text-anchor="middle" x="320" y="-1879.1" font-family="Times Roman,serif" font-size="11.00">Task</text>
</g>
<!-- \\LibMelanie\\Api\\Melanie2\\Task&#45;&gt;\\LibMelanie\\Lib\\Melanie2Object -->
<g id="edge78" class="edge"><title>\\LibMelanie\\Api\\Melanie2\\Task&#45;&gt;\\LibMelanie\\Lib\\Melanie2Object</title>
<path fill="none" stroke="black" d="M292.564,-1882.4C267.932,-1881.28 232.313,-1875.76 210,-1855 142.295,-1792 208.111,-1725.52 146,-1657 145.113,-1656.02 144.184,-1655.08 143.219,-1654.16"/>
<polygon fill="none" stroke="black" points="145.205,-1651.27 135.196,-1647.8 140.853,-1656.76 145.205,-1651.27"/>
</g>
<!-- \\LibMelanie\\Api\\Melanie2\\User -->
<g id="node20" class="node"><title>\\LibMelanie\\Api\\Melanie2\\User</title>
<polygon fill="none" stroke="black" points="347,-1846 293,-1846 293,-1810 347,-1810 347,-1846"/>
<text text-anchor="middle" x="320" y="-1825.1" font-family="Times Roman,serif" font-size="11.00">User</text>
</g>
<!-- \\LibMelanie\\Api\\Melanie2\\User&#45;&gt;\\LibMelanie\\Lib\\Melanie2Object -->
<g id="edge84" class="edge"><title>\\LibMelanie\\Api\\Melanie2\\User&#45;&gt;\\LibMelanie\\Lib\\Melanie2Object</title>
<path fill="none" stroke="black" d="M292.595,-1824.56C268.325,-1820.24 233.239,-1810.69 210,-1790 161.006,-1746.38 193.253,-1702.5 146,-1657 144.916,-1655.96 143.786,-1654.95 142.616,-1653.98"/>
<polygon fill="none" stroke="black" points="144.565,-1651.07 134.402,-1648.08 140.482,-1656.76 144.565,-1651.07"/>
</g>
<!-- \\LibMelanie\\Objects\\UserMelanie -->
<g id="node22" class="node"><title>\\LibMelanie\\Objects\\UserMelanie</title>
<polygon fill="none" stroke="black" points="361,-1756 279,-1756 279,-1720 361,-1720 361,-1756"/>
<text text-anchor="middle" x="320" y="-1735.1" font-family="Times Roman,serif" font-size="11.00">UserMelanie</text>
</g>
<!-- \\LibMelanie\\Objects\\EventMelanie -->
<g id="node23" class="node"><title>\\LibMelanie\\Objects\\EventMelanie</title>
<polygon fill="none" stroke="black" points="364,-1432 276,-1432 276,-1396 364,-1396 364,-1432"/>
<text text-anchor="middle" x="320" y="-1411.1" font-family="Times Roman,serif" font-size="11.00">EventMelanie</text>
</g>
<!-- \\LibMelanie\\Lib\\MagicObject -->
<g id="node57" class="node"><title>\\LibMelanie\\Lib\\MagicObject</title>
<polygon fill="none" stroke="black" points="126,-1486 42,-1486 42,-1450 126,-1450 126,-1486"/>
<text text-anchor="start" x="54" y="-1473.43" font-family="Times Roman,serif" font-size="11.00">«abstract»</text>
<text text-anchor="start" x="50.5" y="-1460.23" font-family="Times Roman,serif" font-size="11.00">MagicObject</text>
</g>
<!-- \\LibMelanie\\Objects\\EventMelanie&#45;&gt;\\LibMelanie\\Lib\\MagicObject -->
<g id="edge16" class="edge"><title>\\LibMelanie\\Objects\\EventMelanie&#45;&gt;\\LibMelanie\\Lib\\MagicObject</title>
<path fill="none" stroke="black" d="M275.333,-1424.22C235.705,-1433.29 177.795,-1446.54 136.076,-1456.08"/>
<polygon fill="none" stroke="black" points="135.073,-1452.72 126.105,-1458.37 136.634,-1459.55 135.073,-1452.72"/>
</g>
<!-- \\LibMelanie\\Interfaces\\IObjectMelanie -->
<g id="node63" class="node"><title>\\LibMelanie\\Interfaces\\IObjectMelanie</title>
<polygon fill="none" stroke="black" points="131,-1350 37,-1350 37,-1314 131,-1314 131,-1350"/>
<text text-anchor="middle" x="84" y="-1329.1" font-family="Times Roman,serif" font-size="11.00">IObjectMelanie</text>
</g>
<!-- \\LibMelanie\\Objects\\EventMelanie&#45;&gt;\\LibMelanie\\Interfaces\\IObjectMelanie -->
<g id="edge18" class="edge"><title>\\LibMelanie\\Objects\\EventMelanie&#45;&gt;\\LibMelanie\\Interfaces\\IObjectMelanie</title>
<path fill="none" stroke="black" stroke-dasharray="1,5" d="M275.347,-1404.86C255.16,-1400.27 231.142,-1394.15 210,-1387 182.974,-1377.86 153.716,-1365.26 130.203,-1354.43"/>
<polygon fill="none" stroke="black" points="131.375,-1351.12 120.832,-1350.07 128.42,-1357.46 131.375,-1351.12"/>
</g>
<!-- \\LibMelanie\\Objects\\HistoryMelanie -->
<g id="node24" class="node"><title>\\LibMelanie\\Objects\\HistoryMelanie</title>
<polygon fill="none" stroke="black" points="368,-1378 272,-1378 272,-1342 368,-1342 368,-1378"/>
<text text-anchor="middle" x="320" y="-1357.1" font-family="Times Roman,serif" font-size="11.00">HistoryMelanie</text>
</g>
<!-- \\LibMelanie\\Objects\\HistoryMelanie&#45;&gt;\\LibMelanie\\Lib\\MagicObject -->
<g id="edge20" class="edge"><title>\\LibMelanie\\Objects\\HistoryMelanie&#45;&gt;\\LibMelanie\\Lib\\MagicObject</title>
<path fill="none" stroke="black" d="M271.739,-1366.87C251.88,-1370.94 229.102,-1377.28 210,-1387 176.832,-1403.88 177.615,-1421.36 146,-1441 142.618,-1443.1 139.045,-1445.12 135.39,-1447.04"/>
<polygon fill="none" stroke="black" points="133.599,-1444.02 126.199,-1451.6 136.712,-1450.29 133.599,-1444.02"/>
</g>
<!-- \\LibMelanie\\Objects\\HistoryMelanie&#45;&gt;\\LibMelanie\\Interfaces\\IObjectMelanie -->
<g id="edge22" class="edge"><title>\\LibMelanie\\Objects\\HistoryMelanie&#45;&gt;\\LibMelanie\\Interfaces\\IObjectMelanie</title>
<path fill="none" stroke="black" stroke-dasharray="1,5" d="M271.957,-1354.3C234.268,-1349.83 181.676,-1343.59 141.705,-1338.85"/>
<polygon fill="none" stroke="black" points="141.914,-1335.35 131.572,-1337.64 141.09,-1342.3 141.914,-1335.35"/>
</g>
<!-- \\LibMelanie\\Objects\\CalendarMelanie -->
<g id="node25" class="node"><title>\\LibMelanie\\Objects\\CalendarMelanie</title>
<polygon fill="none" stroke="black" points="373,-1702 267,-1702 267,-1666 373,-1666 373,-1702"/>
<text text-anchor="middle" x="320" y="-1681.1" font-family="Times Roman,serif" font-size="11.00">CalendarMelanie</text>
</g>
<!-- \\LibMelanie\\Objects\\CalendarMelanie&#45;&gt;\\LibMelanie\\Lib\\MagicObject -->
<g id="edge28" class="edge"><title>\\LibMelanie\\Objects\\CalendarMelanie&#45;&gt;\\LibMelanie\\Lib\\MagicObject</title>
<path fill="none" stroke="black" d="M266.852,-1681.12C247.058,-1677.63 225.629,-1670.64 210,-1657 151.678,-1606.09 199.789,-1550.68 146,-1495 142.793,-1491.68 139.109,-1488.74 135.17,-1486.15"/>
<polygon fill="none" stroke="black" points="136.64,-1482.96 126.226,-1481.01 133.15,-1489.03 136.64,-1482.96"/>
</g>
<!-- \\LibMelanie\\Objects\\CalendarMelanie&#45;&gt;\\LibMelanie\\Interfaces\\IObjectMelanie -->
<g id="edge30" class="edge"><title>\\LibMelanie\\Objects\\CalendarMelanie&#45;&gt;\\LibMelanie\\Interfaces\\IObjectMelanie</title>
<path fill="none" stroke="black" stroke-dasharray="1,5" d="M266.91,-1682.45C246.648,-1679.19 224.869,-1672.03 210,-1657 122.339,-1568.42 211.307,-1490.14 146,-1384 139.558,-1373.53 130.277,-1364.14 120.85,-1356.32"/>
<polygon fill="none" stroke="black" points="122.984,-1353.55 112.956,-1350.13 118.664,-1359.05 122.984,-1353.55"/>
</g>
<!-- \\LibMelanie\\Objects\\TaskslistMelanie -->
<g id="node26" class="node"><title>\\LibMelanie\\Objects\\TaskslistMelanie</title>
<polygon fill="none" stroke="black" points="371,-1648 269,-1648 269,-1612 371,-1612 371,-1648"/>
<text text-anchor="middle" x="320" y="-1627.1" font-family="Times Roman,serif" font-size="11.00">TaskslistMelanie</text>
</g>
<!-- \\LibMelanie\\Objects\\TaskslistMelanie&#45;&gt;\\LibMelanie\\Lib\\MagicObject -->
<g id="edge62" class="edge"><title>\\LibMelanie\\Objects\\TaskslistMelanie&#45;&gt;\\LibMelanie\\Lib\\MagicObject</title>
<path fill="none" stroke="black" d="M268.481,-1625.9C248.682,-1622.25 226.819,-1615.48 210,-1603 165.189,-1569.76 187.826,-1531.93 146,-1495 142.642,-1492.04 138.907,-1489.35 134.984,-1486.94"/>
<polygon fill="none" stroke="black" points="136.609,-1483.84 126.163,-1482.07 133.224,-1489.97 136.609,-1483.84"/>
</g>
<!-- \\LibMelanie\\Objects\\TaskslistMelanie&#45;&gt;\\LibMelanie\\Interfaces\\IObjectMelanie -->
<g id="edge64" class="edge"><title>\\LibMelanie\\Objects\\TaskslistMelanie&#45;&gt;\\LibMelanie\\Interfaces\\IObjectMelanie</title>
<path fill="none" stroke="black" stroke-dasharray="1,5" d="M268.44,-1628.22C247.927,-1624.98 225.554,-1617.89 210,-1603 136.749,-1532.88 201.454,-1468.9 146,-1384 139.218,-1373.62 129.74,-1364.21 120.233,-1356.34"/>
<polygon fill="none" stroke="black" points="122.323,-1353.53 112.298,-1350.11 117.998,-1359.04 122.323,-1353.53"/>
</g>
<!-- \\LibMelanie\\Objects\\ObjectMelanie -->
<g id="node27" class="node"><title>\\LibMelanie\\Objects\\ObjectMelanie</title>
<polygon fill="none" stroke="black" points="366,-1594 274,-1594 274,-1558 366,-1558 366,-1594"/>
<text text-anchor="middle" x="320" y="-1573.1" font-family="Times Roman,serif" font-size="11.00">ObjectMelanie</text>
</g>
<!-- \\LibMelanie\\Objects\\ObjectMelanie&#45;&gt;\\LibMelanie\\Lib\\MagicObject -->
<g id="edge70" class="edge"><title>\\LibMelanie\\Objects\\ObjectMelanie&#45;&gt;\\LibMelanie\\Lib\\MagicObject</title>
<path fill="none" stroke="black" d="M273.372,-1569.46C253.136,-1565.41 229.628,-1558.99 210,-1549 176.832,-1532.12 177.615,-1514.64 146,-1495 142.618,-1492.9 139.045,-1490.88 135.39,-1488.96"/>
<polygon fill="none" stroke="black" points="136.712,-1485.71 126.199,-1484.4 133.599,-1491.98 136.712,-1485.71"/>
</g>
<!-- \\LibMelanie\\Objects\\ObjectMelanie&#45;&gt;\\LibMelanie\\Interfaces\\IObjectMelanie -->
<g id="edge72" class="edge"><title>\\LibMelanie\\Objects\\ObjectMelanie&#45;&gt;\\LibMelanie\\Interfaces\\IObjectMelanie</title>
<path fill="none" stroke="black" stroke-dasharray="1,5" d="M273.491,-1574.23C251.957,-1571.19 227.359,-1564.25 210,-1549 150.904,-1497.09 191.795,-1447.95 146,-1384 138.715,-1373.83 128.995,-1364.44 119.416,-1356.52"/>
<polygon fill="none" stroke="black" points="121.474,-1353.69 111.459,-1350.23 117.133,-1359.18 121.474,-1353.69"/>
</g>
<!-- \\LibMelanie\\Objects\\AttachmentMelanie -->
<g id="node28" class="node"><title>\\LibMelanie\\Objects\\AttachmentMelanie</title>
<polygon fill="none" stroke="black" points="381,-1540 259,-1540 259,-1504 381,-1504 381,-1540"/>
<text text-anchor="middle" x="320" y="-1519.1" font-family="Times Roman,serif" font-size="11.00">AttachmentMelanie</text>
</g>
<!-- \\LibMelanie\\Objects\\AttachmentMelanie&#45;&gt;\\LibMelanie\\Lib\\MagicObject -->
<g id="edge74" class="edge"><title>\\LibMelanie\\Objects\\AttachmentMelanie&#45;&gt;\\LibMelanie\\Lib\\MagicObject</title>
<path fill="none" stroke="black" d="M258.302,-1507.88C220.227,-1499.17 171.938,-1488.12 135.846,-1479.86"/>
<polygon fill="none" stroke="black" points="136.538,-1476.43 126.009,-1477.61 134.976,-1483.25 136.538,-1476.43"/>
</g>
<!-- \\LibMelanie\\Objects\\AttachmentMelanie&#45;&gt;\\LibMelanie\\Interfaces\\IObjectMelanie -->
<g id="edge76" class="edge"><title>\\LibMelanie\\Objects\\AttachmentMelanie&#45;&gt;\\LibMelanie\\Interfaces\\IObjectMelanie</title>
<path fill="none" stroke="black" stroke-dasharray="1,5" d="M258.22,-1515.87C241.355,-1511.9 223.914,-1505.45 210,-1495 164.468,-1460.8 182.597,-1427.63 146,-1384 137.748,-1374.16 127.484,-1364.72 117.697,-1356.64"/>
<polygon fill="none" stroke="black" points="119.64,-1353.72 109.644,-1350.21 115.268,-1359.18 119.64,-1353.72"/>
</g>
<!-- \\LibMelanie\\Objects\\AddressbookMelanie -->
<g id="node29" class="node"><title>\\LibMelanie\\Objects\\AddressbookMelanie</title>
<polygon fill="none" stroke="black" points="384,-1486 256,-1486 256,-1450 384,-1450 384,-1486"/>
<text text-anchor="middle" x="320" y="-1465.1" font-family="Times Roman,serif" font-size="11.00">AddressbookMelanie</text>
</g>
<!-- \\LibMelanie\\Objects\\AddressbookMelanie&#45;&gt;\\LibMelanie\\Lib\\MagicObject -->
<g id="edge80" class="edge"><title>\\LibMelanie\\Objects\\AddressbookMelanie&#45;&gt;\\LibMelanie\\Lib\\MagicObject</title>
<path fill="none" stroke="black" d="M255.824,-1468C218.306,-1468 171.55,-1468 136.288,-1468"/>
<polygon fill="none" stroke="black" points="136.202,-1464.5 126.202,-1468 136.202,-1471.5 136.202,-1464.5"/>
</g>
<!-- \\LibMelanie\\Objects\\AddressbookMelanie&#45;&gt;\\LibMelanie\\Interfaces\\IObjectMelanie -->
<g id="edge82" class="edge"><title>\\LibMelanie\\Objects\\AddressbookMelanie&#45;&gt;\\LibMelanie\\Interfaces\\IObjectMelanie</title>
<path fill="none" stroke="black" stroke-dasharray="1,5" d="M255.831,-1457.79C240.286,-1453.84 224.097,-1448.41 210,-1441 176.288,-1423.27 174.818,-1408.91 146,-1384 135.601,-1375.01 124.094,-1365.3 113.845,-1356.73"/>
<polygon fill="none" stroke="black" points="115.862,-1353.85 105.941,-1350.13 111.378,-1359.23 115.862,-1353.85"/>
</g>
<!-- \\LibMelanie\\Sql\\SqlCalendarRequests -->
<g id="node31" class="node"><title>\\LibMelanie\\Sql\\SqlCalendarRequests</title>
<polygon fill="none" stroke="black" points="385,-1296 255,-1296 255,-1260 385,-1260 385,-1296"/>
<text text-anchor="middle" x="320" y="-1275.1" font-family="Times Roman,serif" font-size="11.00">SqlCalendarRequests</text>
</g>
<!-- \\LibMelanie\\Sql\\SqlHistoryRequests -->
<g id="node32" class="node"><title>\\LibMelanie\\Sql\\SqlHistoryRequests</title>
<polygon fill="none" stroke="black" points="381,-1242 259,-1242 259,-1206 381,-1206 381,-1242"/>
<text text-anchor="middle" x="320" y="-1221.1" font-family="Times Roman,serif" font-size="11.00">SqlHistoryRequests</text>
</g>
<!-- \\LibMelanie\\Sql\\SqlAttachmentRequests -->
<g id="node33" class="node"><title>\\LibMelanie\\Sql\\SqlAttachmentRequests</title>
<polygon fill="none" stroke="black" points="394,-1188 246,-1188 246,-1152 394,-1152 394,-1188"/>
<text text-anchor="middle" x="320" y="-1167.1" font-family="Times Roman,serif" font-size="11.00">SqlAttachmentRequests</text>
</g>
<!-- \\LibMelanie\\Sql\\SqlObjectRequests -->
<g id="node34" class="node"><title>\\LibMelanie\\Sql\\SqlObjectRequests</title>
<polygon fill="none" stroke="black" points="379,-1134 261,-1134 261,-1098 379,-1098 379,-1134"/>
<text text-anchor="middle" x="320" y="-1113.1" font-family="Times Roman,serif" font-size="11.00">SqlObjectRequests</text>
</g>
<!-- \\LibMelanie\\Sql\\SqlTaskRequests -->
<g id="node35" class="node"><title>\\LibMelanie\\Sql\\SqlTaskRequests</title>
<polygon fill="none" stroke="black" points="373,-1080 267,-1080 267,-1044 373,-1044 373,-1080"/>
<text text-anchor="middle" x="320" y="-1059.1" font-family="Times Roman,serif" font-size="11.00">SqlTaskRequests</text>
</g>
<!-- \\LibMelanie\\Sql\\SqlMelanieRequests -->
<g id="node36" class="node"><title>\\LibMelanie\\Sql\\SqlMelanieRequests</title>
<polygon fill="none" stroke="black" points="382,-1026 258,-1026 258,-990 382,-990 382,-1026"/>
<text text-anchor="middle" x="320" y="-1005.1" font-family="Times Roman,serif" font-size="11.00">SqlMelanieRequests</text>
</g>
<!-- \\LibMelanie\\Sql\\DBMelanie -->
<g id="node37" class="node"><title>\\LibMelanie\\Sql\\DBMelanie</title>
<polygon fill="none" stroke="black" points="357,-972 283,-972 283,-936 357,-936 357,-972"/>
<text text-anchor="middle" x="320" y="-951.1" font-family="Times Roman,serif" font-size="11.00">DBMelanie</text>
</g>
<!-- \\LibMelanie\\Sql\\Sql -->
<g id="node38" class="node"><title>\\LibMelanie\\Sql\\Sql</title>
<polygon fill="none" stroke="black" points="347,-918 293,-918 293,-882 347,-882 347,-918"/>
<text text-anchor="middle" x="320" y="-897.1" font-family="Times Roman,serif" font-size="11.00">Sql</text>
</g>
<!-- \\LibMelanie\\Sql\\SqlContactRequests -->
<g id="node39" class="node"><title>\\LibMelanie\\Sql\\SqlContactRequests</title>
<polygon fill="none" stroke="black" points="383,-864 257,-864 257,-828 383,-828 383,-864"/>
<text text-anchor="middle" x="320" y="-843.1" font-family="Times Roman,serif" font-size="11.00">SqlContactRequests</text>
</g>
<!-- \\LibMelanie\\Sql\\SqlObjectPropertyRequests -->
<g id="node40" class="node"><title>\\LibMelanie\\Sql\\SqlObjectPropertyRequests</title>
<polygon fill="none" stroke="black" points="402,-810 238,-810 238,-774 402,-774 402,-810"/>
<text text-anchor="middle" x="320" y="-789.1" font-family="Times Roman,serif" font-size="11.00">SqlObjectPropertyRequests</text>
</g>
<!-- \\LibMelanie\\Ldap\\Ldap -->
<g id="node42" class="node"><title>\\LibMelanie\\Ldap\\Ldap</title>
<polygon fill="none" stroke="black" points="347,-728 293,-728 293,-692 347,-692 347,-728"/>
<text text-anchor="middle" x="320" y="-707.1" font-family="Times Roman,serif" font-size="11.00">Ldap</text>
</g>
<!-- \\LibMelanie\\Ldap\\LDAPMelanie -->
<g id="node43" class="node"><title>\\LibMelanie\\Ldap\\LDAPMelanie</title>
<polygon fill="none" stroke="black" points="363,-674 277,-674 277,-638 363,-638 363,-674"/>
<text text-anchor="middle" x="320" y="-653.1" font-family="Times Roman,serif" font-size="11.00">LDAPMelanie</text>
</g>
<!-- \\LibMelanie\\Log\\M2Log -->
<g id="node45" class="node"><title>\\LibMelanie\\Log\\M2Log</title>
<polygon fill="none" stroke="black" points="347,-592 293,-592 293,-556 347,-556 347,-592"/>
<text text-anchor="middle" x="320" y="-571.1" font-family="Times Roman,serif" font-size="11.00">M2Log</text>
</g>
<!-- \\LibMelanie\\Log\\Log -->
<g id="node46" class="node"><title>\\LibMelanie\\Log\\Log</title>
<polygon fill="none" stroke="black" points="347,-538 293,-538 293,-502 347,-502 347,-538"/>
<text text-anchor="middle" x="320" y="-517.1" font-family="Times Roman,serif" font-size="11.00">Log</text>
</g>
<!-- \\LibMelanie\\Exceptions\\UndefinedMappingException -->
<g id="node48" class="node"><title>\\LibMelanie\\Exceptions\\UndefinedMappingException</title>
<polygon fill="none" stroke="black" points="406,-456 234,-456 234,-420 406,-420 406,-456"/>
<text text-anchor="middle" x="320" y="-435.1" font-family="Times Roman,serif" font-size="11.00">UndefinedMappingException</text>
</g>
<!-- \\Exception -->
<g id="node73" class="node"><title>\\Exception</title>
<ellipse fill="none" stroke="black" cx="84" cy="-18" rx="61.8445" ry="18"/>
<text text-anchor="middle" x="84" y="-13.9" font-family="Times Roman,serif" font-size="14.00" fill="gray">\Exception</text>
</g>
<!-- \\LibMelanie\\Exceptions\\UndefinedMappingException&#45;&gt;\\Exception -->
<g id="edge26" class="edge"><title>\\LibMelanie\\Exceptions\\UndefinedMappingException&#45;&gt;\\Exception</title>
<path fill="none" stroke="black" d="M233.821,-426.242C225.083,-422.411 216.902,-417.438 210,-411 154.967,-359.668 105.41,-127.953 89.3981,-46.4568"/>
<polygon fill="none" stroke="black" points="92.7907,-45.5666 87.4469,-36.4181 85.9193,-46.9022 92.7907,-45.5666"/>
</g>
<!-- \\LibMelanie\\Exceptions\\PropertyDoesNotExistException -->
<g id="node49" class="node"><title>\\LibMelanie\\Exceptions\\PropertyDoesNotExistException</title>
<polygon fill="none" stroke="black" points="415,-402 225,-402 225,-366 415,-366 415,-402"/>
<text text-anchor="middle" x="320" y="-381.1" font-family="Times Roman,serif" font-size="11.00">PropertyDoesNotExistException</text>
</g>
<!-- \\LibMelanie\\Exceptions\\PropertyDoesNotExistException&#45;&gt;\\Exception -->
<g id="edge32" class="edge"><title>\\LibMelanie\\Exceptions\\PropertyDoesNotExistException&#45;&gt;\\Exception</title>
<path fill="none" stroke="black" d="M224.476,-367.201C219.287,-364.3 214.405,-360.924 210,-357 115.829,-273.095 91.8653,-112.136 85.9114,-46.7115"/>
<polygon fill="none" stroke="black" points="89.3664,-46.0246 85.0488,-36.3495 82.3906,-46.6054 89.3664,-46.0246"/>
</g>
<!-- \\LibMelanie\\Exceptions\\ObjectMelanieUndefinedException -->
<g id="node50" class="node"><title>\\LibMelanie\\Exceptions\\ObjectMelanieUndefinedException</title>
<polygon fill="none" stroke="black" points="421,-348 219,-348 219,-312 421,-312 421,-348"/>
<text text-anchor="middle" x="320" y="-327.1" font-family="Times Roman,serif" font-size="11.00">ObjectMelanieUndefinedException</text>
</g>
<!-- \\LibMelanie\\Exceptions\\ObjectMelanieUndefinedException&#45;&gt;\\Exception -->
<g id="edge36" class="edge"><title>\\LibMelanie\\Exceptions\\ObjectMelanieUndefinedException&#45;&gt;\\Exception</title>
<path fill="none" stroke="black" d="M222.921,-311.879C218.339,-309.291 213.994,-306.347 210,-303 128.789,-234.928 98.0883,-104.175 88.147,-46.5124"/>
<polygon fill="none" stroke="black" points="91.5464,-45.6132 86.4756,-36.3107 84.6385,-46.745 91.5464,-45.6132"/>
</g>
<!-- \\LibMelanie\\Exceptions\\Melanie2Exception -->
<g id="node51" class="node"><title>\\LibMelanie\\Exceptions\\Melanie2Exception</title>
<polygon fill="none" stroke="black" points="379,-294 261,-294 261,-258 379,-258 379,-294"/>
<text text-anchor="middle" x="320" y="-273.1" font-family="Times Roman,serif" font-size="11.00">Melanie2Exception</text>
</g>
<!-- \\LibMelanie\\Exceptions\\Melanie2Exception&#45;&gt;\\Exception -->
<g id="edge38" class="edge"><title>\\LibMelanie\\Exceptions\\Melanie2Exception&#45;&gt;\\Exception</title>
<path fill="none" stroke="black" d="M260.343,-270.606C242.772,-266.698 224.413,-260.096 210,-249 141.372,-196.168 105.287,-94.8944 91.1836,-45.9053"/>
<polygon fill="none" stroke="black" points="94.4818,-44.702 88.4299,-36.0058 87.7379,-46.578 94.4818,-44.702"/>
</g>
<!-- \\LibMelanie\\Exceptions\\UndefinedPrimaryKeyException -->
<g id="node52" class="node"><title>\\LibMelanie\\Exceptions\\UndefinedPrimaryKeyException</title>
<polygon fill="none" stroke="black" points="414,-240 226,-240 226,-204 414,-204 414,-240"/>
<text text-anchor="middle" x="320" y="-219.1" font-family="Times Roman,serif" font-size="11.00">UndefinedPrimaryKeyException</text>
</g>
<!-- \\LibMelanie\\Exceptions\\UndefinedPrimaryKeyException&#45;&gt;\\Exception -->
<g id="edge48" class="edge"><title>\\LibMelanie\\Exceptions\\UndefinedPrimaryKeyException&#45;&gt;\\Exception</title>
<path fill="none" stroke="black" d="M225.863,-203.9C220.303,-201.318 214.962,-198.369 210,-195 153.756,-156.816 114.255,-84.6691 95.7991,-45.3051"/>
<polygon fill="none" stroke="black" points="98.9055,-43.6821 91.5629,-36.0443 92.5399,-46.594 98.9055,-43.6821"/>
</g>
<!-- \\LibMelanie\\Exceptions\\Melanie2DatabaseException -->
<g id="node53" class="node"><title>\\LibMelanie\\Exceptions\\Melanie2DatabaseException</title>
<polygon fill="none" stroke="black" points="406,-186 234,-186 234,-150 406,-150 406,-186"/>
<text text-anchor="middle" x="320" y="-165.1" font-family="Times Roman,serif" font-size="11.00">Melanie2DatabaseException</text>
</g>
<!-- \\LibMelanie\\Exceptions\\Melanie2DatabaseException&#45;&gt;\\Exception -->
<g id="edge54" class="edge"><title>\\LibMelanie\\Exceptions\\Melanie2DatabaseException&#45;&gt;\\Exception</title>
<path fill="none" stroke="black" d="M236.252,-149.909C227.127,-146.558 218.189,-142.62 210,-138 166.843,-113.653 127.261,-71.24 104.391,-43.908"/>
<polygon fill="none" stroke="black" points="106.9,-41.4477 97.845,-35.9465 101.493,-45.8936 106.9,-41.4477"/>
</g>
<!-- \\LibMelanie\\Lib\\ICSToEvent -->
<g id="node55" class="node"><title>\\LibMelanie\\Lib\\ICSToEvent</title>
<polygon fill="none" stroke="black" points="122,-1756 46,-1756 46,-1720 122,-1720 122,-1756"/>
<text text-anchor="middle" x="84" y="-1735.1" font-family="Times Roman,serif" font-size="11.00">ICSToEvent</text>
</g>
<!-- \\LibMelanie\\Lib\\EventToICS -->
<g id="node56" class="node"><title>\\LibMelanie\\Lib\\EventToICS</title>
<polygon fill="none" stroke="black" points="122,-1702 46,-1702 46,-1666 122,-1666 122,-1702"/>
<text text-anchor="middle" x="84" y="-1681.1" font-family="Times Roman,serif" font-size="11.00">EventToICS</text>
</g>
<!-- \\LibMelanie\\Lib\\Selaforme -->
<g id="node58" class="node"><title>\\LibMelanie\\Lib\\Selaforme</title>
<polygon fill="none" stroke="black" points="120,-1594 48,-1594 48,-1558 120,-1558 120,-1594"/>
<text text-anchor="middle" x="84" y="-1573.1" font-family="Times Roman,serif" font-size="11.00">Selaforme</text>
</g>
<!-- \\LibMelanie\\Lib\\EventToICSSAVE -->
<g id="node59" class="node"><title>\\LibMelanie\\Lib\\EventToICSSAVE</title>
<polygon fill="none" stroke="black" points="136,-1540 32,-1540 32,-1504 136,-1504 136,-1540"/>
<text text-anchor="middle" x="84" y="-1519.1" font-family="Times Roman,serif" font-size="11.00">EventToICSSAVE</text>
</g>
<!-- \\LibMelanie\\Lib\\ICS -->
<g id="node61" class="node"><title>\\LibMelanie\\Lib\\ICS</title>
<polygon fill="none" stroke="black" points="111,-1432 57,-1432 57,-1396 111,-1396 111,-1432"/>
<text text-anchor="middle" x="84" y="-1411.1" font-family="Times Roman,serif" font-size="11.00">ICS</text>
</g>
<!-- \\LibMelanie\\Cache\\Cache -->
<g id="node65" class="node"><title>\\LibMelanie\\Cache\\Cache</title>
<polygon fill="none" stroke="black" points="347,-104 293,-104 293,-68 347,-68 347,-104"/>
<text text-anchor="middle" x="320" y="-83.1" font-family="Times Roman,serif" font-size="11.00">Cache</text>
</g>
<!-- Exception -->
<g id="node103" class="node"><title>Exception</title>
<ellipse fill="none" stroke="black" cx="320" cy="-2748" rx="57.8712" ry="18"/>
<text text-anchor="middle" x="320" y="-2743.9" font-family="Times Roman,serif" font-size="14.00">Exception</text>
</g>
</g>
</svg>
