<?xml version="1.0" encoding="UTF-8" standalone="no"?>
<!DOCTYPE svg PUBLIC "-//W3C//DTD SVG 1.1//EN"
 "http://www.w3.org/Graphics/SVG/1.1/DTD/svg11.dtd">
<!-- Generated by graphviz version 2.26.3 (20100126.1600)
 -->
<!-- Title: G Pages: 1 -->
<svg width="462pt" height="2774pt"
 viewBox="0.00 0.00 462.00 2774.00" xmlns="http://www.w3.org/2000/svg" xmlns:xlink="http://www.w3.org/1999/xlink">
<g id="graph1" class="graph" transform="scale(1 1) rotate(0) translate(4 2770)">
<title>G</title>
<polygon fill="white" stroke="white" points="-4,5 -4,-2770 459,-2770 459,5 -4,5"/>
<g id="graph2" class="cluster"><title>cluster_Global</title>
<polyline fill="none" stroke="gray" points="20,-44 434,-44 "/>
<path fill="none" stroke="gray" d="M434,-44C440,-44 446,-50 446,-56"/>
<polyline fill="none" stroke="gray" points="446,-56 446,-2710 "/>
<path fill="none" stroke="gray" d="M446,-2710C446,-2716 440,-2722 434,-2722"/>
<polyline fill="none" stroke="gray" points="434,-2722 20,-2722 "/>
<path fill="none" stroke="gray" d="M20,-2722C14,-2722 8,-2716 8,-2710"/>
<polyline fill="none" stroke="gray" points="8,-2710 8,-56 "/>
<path fill="none" stroke="gray" d="M8,-56C8,-50 14,-44 20,-44"/>
<text text-anchor="middle" x="227" y="-2708.1" font-family="Times Roman,serif" font-size="11.00" fill="gray">Global</text>
</g>
<g id="graph3" class="cluster"><title>cluster_\LibMelanie</title>
<polyline fill="none" stroke="gray" points="28,-52 426,-52 "/>
<path fill="none" stroke="gray" d="M426,-52C432,-52 438,-58 438,-64"/>
<polyline fill="none" stroke="gray" points="438,-64 438,-2680 "/>
<path fill="none" stroke="gray" d="M438,-2680C438,-2686 432,-2692 426,-2692"/>
<polyline fill="none" stroke="gray" points="426,-2692 28,-2692 "/>
<path fill="none" stroke="gray" d="M28,-2692C22,-2692 16,-2686 16,-2680"/>
<polyline fill="none" stroke="gray" points="16,-2680 16,-64 "/>
<path fill="none" stroke="gray" d="M16,-64C16,-58 22,-52 28,-52"/>
<text text-anchor="middle" x="227" y="-2678.1" font-family="Times Roman,serif" font-size="11.00" fill="gray">LibMelanie</text>
</g>
<g id="graph4" class="cluster"><title>cluster_\LibMelanie\Api</title>
<polyline fill="none" stroke="gray" points="53,-1794 371,-1794 "/>
<path fill="none" stroke="gray" d="M371,-1794C377,-1794 383,-1800 383,-1806"/>
<polyline fill="none" stroke="gray" points="383,-1806 383,-2650 "/>
<path fill="none" stroke="gray" d="M383,-2650C383,-2656 377,-2662 371,-2662"/>
<polyline fill="none" stroke="gray" points="371,-2662 53,-2662 "/>
<path fill="none" stroke="gray" d="M53,-2662C47,-2662 41,-2656 41,-2650"/>
<polyline fill="none" stroke="gray" points="41,-2650 41,-1806 "/>
<path fill="none" stroke="gray" d="M41,-1806C41,-1800 47,-1794 53,-1794"/>
<text text-anchor="middle" x="212" y="-2648.1" font-family="Times Roman,serif" font-size="11.00" fill="gray">Api</text>
</g>
<g id="graph5" class="cluster"><title>cluster_\LibMelanie\Api\Melanie2</title>
<polyline fill="none" stroke="gray" points="61,-1802 363,-1802 "/>
<path fill="none" stroke="gray" d="M363,-1802C369,-1802 375,-1808 375,-1814"/>
<polyline fill="none" stroke="gray" points="375,-1814 375,-2620 "/>
<path fill="none" stroke="gray" d="M375,-2620C375,-2626 369,-2632 363,-2632"/>
<polyline fill="none" stroke="gray" points="363,-2632 61,-2632 "/>
<path fill="none" stroke="gray" d="M61,-2632C55,-2632 49,-2626 49,-2620"/>
<polyline fill="none" stroke="gray" points="49,-2620 49,-1814 "/>
<path fill="none" stroke="gray" d="M49,-1814C49,-1808 55,-1802 61,-1802"/>
<text text-anchor="middle" x="212" y="-2618.1" font-family="Times Roman,serif" font-size="11.00" fill="gray">Melanie2</text>
</g>
<g id="graph6" class="cluster"><title>cluster_\LibMelanie\Objects</title>
<polyline fill="none" stroke="gray" points="260,-1334 380,-1334 "/>
<path fill="none" stroke="gray" d="M380,-1334C386,-1334 392,-1340 392,-1346"/>
<polyline fill="none" stroke="gray" points="392,-1346 392,-1774 "/>
<path fill="none" stroke="gray" d="M392,-1774C392,-1780 386,-1786 380,-1786"/>
<polyline fill="none" stroke="gray" points="380,-1786 260,-1786 "/>
<path fill="none" stroke="gray" d="M260,-1786C254,-1786 248,-1780 248,-1774"/>
<polyline fill="none" stroke="gray" points="248,-1774 248,-1346 "/>
<path fill="none" stroke="gray" d="M248,-1346C248,-1340 254,-1334 260,-1334"/>
<text text-anchor="middle" x="320" y="-1772.1" font-family="Times Roman,serif" font-size="11.00" fill="gray">Objects</text>
</g>
<g id="graph7" class="cluster"><title>cluster_\LibMelanie\Sql</title>
<polyline fill="none" stroke="gray" points="241,-766 399,-766 "/>
<path fill="none" stroke="gray" d="M399,-766C405,-766 411,-772 411,-778"/>
<polyline fill="none" stroke="gray" points="411,-778 411,-1314 "/>
<path fill="none" stroke="gray" d="M411,-1314C411,-1320 405,-1326 399,-1326"/>
<polyline fill="none" stroke="gray" points="399,-1326 241,-1326 "/>
<path fill="none" stroke="gray" d="M241,-1326C235,-1326 229,-1320 229,-1314"/>
<polyline fill="none" stroke="gray" points="229,-1314 229,-778 "/>
<path fill="none" stroke="gray" d="M229,-778C229,-772 235,-766 241,-766"/>
<text text-anchor="middle" x="320" y="-1312.1" font-family="Times Roman,serif" font-size="11.00" fill="gray">Sql</text>
</g>
<g id="graph8" class="cluster"><title>cluster_\LibMelanie\Ldap</title>
<polyline fill="none" stroke="gray" points="281,-630 359,-630 "/>
<path fill="none" stroke="gray" d="M359,-630C365,-630 371,-636 371,-642"/>
<polyline fill="none" stroke="gray" points="371,-642 371,-746 "/>
<path fill="none" stroke="gray" d="M371,-746C371,-752 365,-758 359,-758"/>
<polyline fill="none" stroke="gray" points="359,-758 281,-758 "/>
<path fill="none" stroke="gray" d="M281,-758C275,-758 269,-752 269,-746"/>
<polyline fill="none" stroke="gray" points="269,-746 269,-642 "/>
<path fill="none" stroke="gray" d="M269,-642C269,-636 275,-630 281,-630"/>
<text text-anchor="middle" x="320" y="-744.1" font-family="Times Roman,serif" font-size="11.00" fill="gray">Ldap</text>
</g>
<g id="graph9" class="cluster"><title>cluster_\LibMelanie\Log</title>
<polyline fill="none" stroke="gray" points="297,-494 343,-494 "/>
<path fill="none" stroke="gray" d="M343,-494C349,-494 355,-500 355,-506"/>
<polyline fill="none" stroke="gray" points="355,-506 355,-610 "/>
<path fill="none" stroke="gray" d="M355,-610C355,-616 349,-622 343,-622"/>
<polyline fill="none" stroke="gray" points="343,-622 297,-622 "/>
<path fill="none" stroke="gray" d="M297,-622C291,-622 285,-616 285,-610"/>
<polyline fill="none" stroke="gray" points="285,-610 285,-506 "/>
<path fill="none" stroke="gray" d="M285,-506C285,-500 291,-494 297,-494"/>
<text text-anchor="middle" x="320" y="-608.1" font-family="Times Roman,serif" font-size="11.00" fill="gray">Log</text>
</g>
<g id="graph10" class="cluster"><title>cluster_\LibMelanie\Lib</title>
<polyline fill="none" stroke="gray" points="36,-1280 132,-1280 "/>
<path fill="none" stroke="gray" d="M132,-1280C138,-1280 144,-1286 144,-1292"/>
<polyline fill="none" stroke="gray" points="144,-1292 144,-1774 "/>
<path fill="none" stroke="gray" d="M144,-1774C144,-1780 138,-1786 132,-1786"/>
<polyline fill="none" stroke="gray" points="132,-1786 36,-1786 "/>
<path fill="none" stroke="gray" d="M36,-1786C30,-1786 24,-1780 24,-1774"/>
<polyline fill="none" stroke="gray" points="24,-1774 24,-1292 "/>
<path fill="none" stroke="gray" d="M24,-1292C24,-1286 30,-1280 36,-1280"/>
<text text-anchor="middle" x="84" y="-1772.1" font-family="Times Roman,serif" font-size="11.00" fill="gray">Lib</text>
</g>
<g id="graph11" class="cluster"><title>cluster_\LibMelanie\Exceptions</title>
<polyline fill="none" stroke="gray" points="222,-142 418,-142 "/>
<path fill="none" stroke="gray" d="M418,-142C424,-142 430,-148 430,-154"/>
<polyline fill="none" stroke="gray" points="430,-154 430,-474 "/>
<path fill="none" stroke="gray" d="M430,-474C430,-480 424,-486 418,-486"/>
<polyline fill="none" stroke="gray" points="418,-486 222,-486 "/>
<path fill="none" stroke="gray" d="M222,-486C216,-486 210,-480 210,-474"/>
<polyline fill="none" stroke="gray" points="210,-474 210,-154 "/>
<path fill="none" stroke="gray" d="M210,-154C210,-148 216,-142 222,-142"/>
<text text-anchor="middle" x="320" y="-472.1" font-family="Times Roman,serif" font-size="11.00" fill="gray">Exceptions</text>
</g>
<g id="graph12" class="cluster"><title>cluster_\LibMelanie\Interfaces</title>
<polyline fill="none" stroke="gray" points="40,-1198 128,-1198 "/>
<path fill="none" stroke="gray" d="M128,-1198C134,-1198 140,-1204 140,-1210"/>
<polyline fill="none" stroke="gray" points="140,-1210 140,-1260 "/>
<path fill="none" stroke="gray" d="M140,-1260C140,-1266 134,-1272 128,-1272"/>
<polyline fill="none" stroke="gray" points="128,-1272 40,-1272 "/>
<path fill="none" stroke="gray" d="M40,-1272C34,-1272 28,-1266 28,-1260"/>
<polyline fill="none" stroke="gray" points="28,-1260 28,-1210 "/>
<path fill="none" stroke="gray" d="M28,-1210C28,-1204 34,-1198 40,-1198"/>
<text text-anchor="middle" x="84" y="-1258.1" font-family="Times Roman,serif" font-size="11.00" fill="gray">Interfaces</text>
</g>
<g id="graph13" class="cluster"><title>cluster_\LibMelanie\Cache</title>
<polyline fill="none" stroke="gray" points="297,-60 343,-60 "/>
<path fill="none" stroke="gray" d="M343,-60C349,-60 355,-66 355,-72"/>
<polyline fill="none" stroke="gray" points="355,-72 355,-122 "/>
<path fill="none" stroke="gray" d="M355,-122C355,-128 349,-134 343,-134"/>
<polyline fill="none" stroke="gray" points="343,-134 297,-134 "/>
<path fill="none" stroke="gray" d="M297,-134C291,-134 285,-128 285,-122"/>
<polyline fill="none" stroke="gray" points="285,-122 285,-72 "/>
<path fill="none" stroke="gray" d="M285,-72C285,-66 291,-60 297,-60"/>
<text text-anchor="middle" x="320" y="-120.1" font-family="Times Roman,serif" font-size="11.00" fill="gray">Cache</text>
</g>
<!-- \\LibMelanie\\Api\\Melanie2\\Attachment -->
<g id="node5" class="node"><title>\\LibMelanie\\Api\\Melanie2\\Attachment</title>
<polygon fill="none" stroke="black" points="361,-2548 279,-2548 279,-2512 361,-2512 361,-2548"/>
<text text-anchor="middle" x="320" y="-2527.1" font-family="Times Roman,serif" font-size="11.00">Attachment</text>
</g>
<!-- \\LibMelanie\\Lib\\Melanie2Object -->
<g id="node55" class="node"><title>\\LibMelanie\\Lib\\Melanie2Object</title>
<polygon fill="none" stroke="black" points="135,-1594 33,-1594 33,-1558 135,-1558 135,-1594"/>
<text text-anchor="start" x="54" y="-1581.43" font-family="Times Roman,serif" font-size="11.00">«abstract»</text>
<text text-anchor="start" x="41.5" y="-1568.23" font-family="Times Roman,serif" font-size="11.00">Melanie2Object</text>
</g>
<!-- \\LibMelanie\\Api\\Melanie2\\Attachment&#45;&gt;\\LibMelanie\\Lib\\Melanie2Object -->
<g id="edge14" class="edge"><title>\\LibMelanie\\Api\\Melanie2\\Attachment&#45;&gt;\\LibMelanie\\Lib\\Melanie2Object</title>
<path fill="none" stroke="black" d="M278.811,-2531.06C255.021,-2529.3 226.606,-2522.69 210,-2503 80.7474,-2349.72 261.771,-1766.71 146,-1603 145.089,-1601.71 144.103,-1600.48 143.052,-1599.32"/>
<polygon fill="none" stroke="black" points="145.085,-1596.44 135.286,-1592.41 140.434,-1601.67 145.085,-1596.44"/>
</g>
<!-- \\LibMelanie\\Api\\Melanie2\\Share -->
<g id="node6" class="node"><title>\\LibMelanie\\Api\\Melanie2\\Share</title>
<polygon fill="none" stroke="black" points="347,-2494 293,-2494 293,-2458 347,-2458 347,-2494"/>
<text text-anchor="middle" x="320" y="-2473.1" font-family="Times Roman,serif" font-size="11.00">Share</text>
</g>
<!-- \\LibMelanie\\Api\\Melanie2\\Share&#45;&gt;\\LibMelanie\\Lib\\Melanie2Object -->
<g id="edge24" class="edge"><title>\\LibMelanie\\Api\\Melanie2\\Share&#45;&gt;\\LibMelanie\\Lib\\Melanie2Object</title>
<path fill="none" stroke="black" d="M292.811,-2477.58C267.276,-2477.44 230.082,-2472.71 210,-2449 88.1372,-2305.14 255.208,-1756.69 146,-1603 145.086,-1601.71 144.097,-1600.49 143.044,-1599.32"/>
<polygon fill="none" stroke="black" points="145.071,-1596.44 135.267,-1592.42 140.427,-1601.68 145.071,-1596.44"/>
</g>
<!-- \\LibMelanie\\Api\\Melanie2\\TaskProperty -->
<g id="node7" class="node"><title>\\LibMelanie\\Api\\Melanie2\\TaskProperty</title>
<polygon fill="none" stroke="black" points="363,-2440 277,-2440 277,-2404 363,-2404 363,-2440"/>
<text text-anchor="middle" x="320" y="-2419.1" font-family="Times Roman,serif" font-size="11.00">TaskProperty</text>
</g>
<!-- \\LibMelanie\\Api\\Melanie2\\TaskProperty&#45;&gt;\\LibMelanie\\Lib\\Melanie2Object -->
<g id="edge34" class="edge"><title>\\LibMelanie\\Api\\Melanie2\\TaskProperty&#45;&gt;\\LibMelanie\\Lib\\Melanie2Object</title>
<path fill="none" stroke="black" d="M276.414,-2422.8C253.175,-2420.75 226.127,-2413.94 210,-2395 95.525,-2260.56 248.647,-1746.67 146,-1603 145.083,-1601.72 144.091,-1600.49 143.035,-1599.33"/>
<polygon fill="none" stroke="black" points="145.055,-1596.44 135.245,-1592.44 140.419,-1601.69 145.055,-1596.44"/>
</g>
<!-- \\LibMelanie\\Api\\Melanie2\\Calendar -->
<g id="node8" class="node"><title>\\LibMelanie\\Api\\Melanie2\\Calendar</title>
<polygon fill="none" stroke="black" points="352,-2386 288,-2386 288,-2350 352,-2350 352,-2386"/>
<text text-anchor="middle" x="320" y="-2365.1" font-family="Times Roman,serif" font-size="11.00">Calendar</text>
</g>
<!-- \\LibMelanie\\Api\\Melanie2\\Calendar&#45;&gt;\\LibMelanie\\Lib\\Melanie2Object -->
<g id="edge40" class="edge"><title>\\LibMelanie\\Api\\Melanie2\\Calendar&#45;&gt;\\LibMelanie\\Lib\\Melanie2Object</title>
<path fill="none" stroke="black" d="M287.384,-2369.42C262.283,-2368.6 228.805,-2362.95 210,-2341 102.91,-2215.98 242.088,-1736.66 146,-1603 145.079,-1601.72 144.084,-1600.5 143.025,-1599.33"/>
<polygon fill="none" stroke="black" points="145.037,-1596.44 135.22,-1592.46 140.409,-1601.69 145.037,-1596.44"/>
</g>
<!-- \\LibMelanie\\Api\\Melanie2\\EventProperty -->
<g id="node9" class="node"><title>\\LibMelanie\\Api\\Melanie2\\EventProperty</title>
<polygon fill="none" stroke="black" points="367,-2332 273,-2332 273,-2296 367,-2296 367,-2332"/>
<text text-anchor="middle" x="320" y="-2311.1" font-family="Times Roman,serif" font-size="11.00">EventProperty</text>
</g>
<!-- \\LibMelanie\\Api\\Melanie2\\EventProperty&#45;&gt;\\LibMelanie\\Lib\\Melanie2Object -->
<g id="edge42" class="edge"><title>\\LibMelanie\\Api\\Melanie2\\EventProperty&#45;&gt;\\LibMelanie\\Lib\\Melanie2Object</title>
<path fill="none" stroke="black" d="M272.899,-2314.37C250.545,-2311.92 225.412,-2304.87 210,-2287 110.292,-2171.39 235.532,-1726.65 146,-1603 145.075,-1601.72 144.076,-1600.5 143.014,-1599.34"/>
<polygon fill="none" stroke="black" points="145.016,-1596.44 135.191,-1592.48 140.399,-1601.71 145.016,-1596.44"/>
</g>
<!-- \\LibMelanie\\Api\\Melanie2\\Exception -->
<g id="node10" class="node"><title>\\LibMelanie\\Api\\Melanie2\\Exception</title>
<polygon fill="none" stroke="black" points="355,-2602 285,-2602 285,-2566 355,-2566 355,-2602"/>
<text text-anchor="middle" x="320" y="-2581.1" font-family="Times Roman,serif" font-size="11.00">Exception</text>
</g>
<!-- \\LibMelanie\\Api\\Melanie2\\Event -->
<g id="node12" class="node"><title>\\LibMelanie\\Api\\Melanie2\\Event</title>
<polygon fill="none" stroke="black" points="111,-2224 57,-2224 57,-2188 111,-2188 111,-2224"/>
<text text-anchor="middle" x="84" y="-2203.1" font-family="Times Roman,serif" font-size="11.00">Event</text>
</g>
<!-- \\LibMelanie\\Api\\Melanie2\\Exception&#45;&gt;\\LibMelanie\\Api\\Melanie2\\Event -->
<g id="edge44" class="edge"><title>\\LibMelanie\\Api\\Melanie2\\Exception&#45;&gt;\\LibMelanie\\Api\\Melanie2\\Event</title>
<path fill="none" stroke="black" d="M284.282,-2583.66C260.549,-2581.59 230.159,-2575.17 210,-2557 112.726,-2469.35 90.5082,-2301.12 85.4666,-2234.34"/>
<polygon fill="none" stroke="black" points="88.9449,-2233.9 84.7743,-2224.16 81.961,-2234.37 88.9449,-2233.9"/>
</g>
<!-- \\LibMelanie\\Api\\Melanie2\\Contact -->
<g id="node11" class="node"><title>\\LibMelanie\\Api\\Melanie2\\Contact</title>
<polygon fill="none" stroke="black" points="349,-2278 291,-2278 291,-2242 349,-2242 349,-2278"/>
<text text-anchor="middle" x="320" y="-2257.1" font-family="Times Roman,serif" font-size="11.00">Contact</text>
</g>
<!-- \\LibMelanie\\Api\\Melanie2\\Contact&#45;&gt;\\LibMelanie\\Lib\\Melanie2Object -->
<g id="edge46" class="edge"><title>\\LibMelanie\\Api\\Melanie2\\Contact&#45;&gt;\\LibMelanie\\Lib\\Melanie2Object</title>
<path fill="none" stroke="black" d="M290.495,-2261.43C265.176,-2260.91 229.74,-2255.7 210,-2233 117.67,-2126.8 228.98,-1716.65 146,-1603 145.07,-1601.73 144.066,-1600.51 143,-1599.35"/>
<polygon fill="none" stroke="black" points="144.991,-1596.45 135.157,-1592.5 140.387,-1601.72 144.991,-1596.45"/>
</g>
<!-- \\LibMelanie\\Api\\Melanie2\\Event&#45;&gt;\\LibMelanie\\Lib\\Melanie2Object -->
<g id="edge50" class="edge"><title>\\LibMelanie\\Api\\Melanie2\\Event&#45;&gt;\\LibMelanie\\Lib\\Melanie2Object</title>
<path fill="none" stroke="black" d="M90.2253,-2187.74C120.136,-2098.58 244.937,-1709.31 178,-1612 170.031,-1600.41 157.784,-1592.55 144.736,-1587.22"/>
<polygon fill="none" stroke="black" points="145.737,-1583.86 135.143,-1583.77 143.367,-1590.45 145.737,-1583.86"/>
</g>
<!-- \\LibMelanie\\Api\\Melanie2\\UserPrefs -->
<g id="node13" class="node"><title>\\LibMelanie\\Api\\Melanie2\\UserPrefs</title>
<polygon fill="none" stroke="black" points="355,-2224 285,-2224 285,-2188 355,-2188 355,-2224"/>
<text text-anchor="middle" x="320" y="-2203.1" font-family="Times Roman,serif" font-size="11.00">UserPrefs</text>
</g>
<!-- \\LibMelanie\\Api\\Melanie2\\UserPrefs&#45;&gt;\\LibMelanie\\Lib\\Melanie2Object -->
<g id="edge52" class="edge"><title>\\LibMelanie\\Api\\Melanie2\\UserPrefs&#45;&gt;\\LibMelanie\\Lib\\Melanie2Object</title>
<path fill="none" stroke="black" d="M284.946,-2207.19C260.25,-2206 228.42,-2199.99 210,-2179 40.0854,-1985.42 298.864,-1810.31 146,-1603 145.064,-1601.73 144.055,-1600.52 142.984,-1599.36"/>
<polygon fill="none" stroke="black" points="144.962,-1596.45 135.118,-1592.53 140.372,-1601.73 144.962,-1596.45"/>
</g>
<!-- \\LibMelanie\\Api\\Melanie2\\Recurrence -->
<g id="node14" class="node"><title>\\LibMelanie\\Api\\Melanie2\\Recurrence</title>
<polygon fill="none" stroke="black" points="359,-2170 281,-2170 281,-2134 359,-2134 359,-2170"/>
<text text-anchor="middle" x="320" y="-2149.1" font-family="Times Roman,serif" font-size="11.00">Recurrence</text>
</g>
<!-- \\LibMelanie\\Api\\Melanie2\\Recurrence&#45;&gt;\\LibMelanie\\Lib\\Melanie2Object -->
<g id="edge56" class="edge"><title>\\LibMelanie\\Api\\Melanie2\\Recurrence&#45;&gt;\\LibMelanie\\Lib\\Melanie2Object</title>
<path fill="none" stroke="black" d="M280.784,-2152.87C256.813,-2151.18 227.494,-2144.7 210,-2125 54.8172,-1950.21 285.781,-1790.33 146,-1603 145.057,-1601.74 144.041,-1600.53 142.964,-1599.38"/>
<polygon fill="none" stroke="black" points="144.928,-1596.45 135.07,-1592.57 140.355,-1601.75 144.928,-1596.45"/>
</g>
<!-- \\LibMelanie\\Api\\Melanie2\\Taskslist -->
<g id="node15" class="node"><title>\\LibMelanie\\Api\\Melanie2\\Taskslist</title>
<polygon fill="none" stroke="black" points="351,-2116 289,-2116 289,-2080 351,-2080 351,-2116"/>
<text text-anchor="middle" x="320" y="-2095.1" font-family="Times Roman,serif" font-size="11.00">Taskslist</text>
</g>
<!-- \\LibMelanie\\Api\\Melanie2\\Taskslist&#45;&gt;\\LibMelanie\\Lib\\Melanie2Object -->
<g id="edge58" class="edge"><title>\\LibMelanie\\Api\\Melanie2\\Taskslist&#45;&gt;\\LibMelanie\\Lib\\Melanie2Object</title>
<path fill="none" stroke="black" d="M288.94,-2099.21C263.88,-2098.39 229.67,-2092.85 210,-2071 69.5307,-1914.98 272.715,-1770.38 146,-1603 145.048,-1601.74 144.025,-1600.54 142.941,-1599.4"/>
<polygon fill="none" stroke="black" points="144.885,-1596.45 135.012,-1592.61 140.334,-1601.77 144.885,-1596.45"/>
</g>
<!-- \\LibMelanie\\Api\\Melanie2\\Attendee -->
<g id="node16" class="node"><title>\\LibMelanie\\Api\\Melanie2\\Attendee</title>
<polygon fill="none" stroke="black" points="353,-2062 287,-2062 287,-2026 353,-2026 353,-2062"/>
<text text-anchor="middle" x="320" y="-2041.1" font-family="Times Roman,serif" font-size="11.00">Attendee</text>
</g>
<!-- \\LibMelanie\\Api\\Melanie2\\Attendee&#45;&gt;\\LibMelanie\\Lib\\Melanie2Object -->
<g id="edge60" class="edge"><title>\\LibMelanie\\Api\\Melanie2\\Attendee&#45;&gt;\\LibMelanie\\Lib\\Melanie2Object</title>
<path fill="none" stroke="black" d="M286.243,-2045.01C261.543,-2043.81 229.13,-2037.88 210,-2017 84.2185,-1879.73 259.672,-1750.46 146,-1603 145.059,-1601.78 144.052,-1600.61 142.987,-1599.5"/>
<polygon fill="none" stroke="black" points="145.107,-1596.71 135.23,-1592.87 140.56,-1602.03 145.107,-1596.71"/>
</g>
<!-- \\LibMelanie\\Api\\Melanie2\\Organizer -->
<g id="node17" class="node"><title>\\LibMelanie\\Api\\Melanie2\\Organizer</title>
<polygon fill="none" stroke="black" points="355,-2008 285,-2008 285,-1972 355,-1972 355,-2008"/>
<text text-anchor="middle" x="320" y="-1987.1" font-family="Times Roman,serif" font-size="11.00">Organizer</text>
</g>
<!-- \\LibMelanie\\Api\\Melanie2\\Organizer&#45;&gt;\\LibMelanie\\Lib\\Melanie2Object -->
<g id="edge66" class="edge"><title>\\LibMelanie\\Api\\Melanie2\\Organizer&#45;&gt;\\LibMelanie\\Lib\\Melanie2Object</title>
<path fill="none" stroke="black" d="M284.829,-1990.8C260.404,-1989.37 228.961,-1983.23 210,-1963 98.8692,-1844.43 246.662,-1730.58 146,-1603 145.046,-1601.79 144.026,-1600.63 142.95,-1599.53"/>
<polygon fill="none" stroke="black" points="145.04,-1596.71 135.138,-1592.94 140.529,-1602.06 145.04,-1596.71"/>
</g>
<!-- \\LibMelanie\\Api\\Melanie2\\Addressbook -->
<g id="node18" class="node"><title>\\LibMelanie\\Api\\Melanie2\\Addressbook</title>
<polygon fill="none" stroke="black" points="363,-1954 277,-1954 277,-1918 363,-1918 363,-1954"/>
<text text-anchor="middle" x="320" y="-1933.1" font-family="Times Roman,serif" font-size="11.00">Addressbook</text>
</g>
<!-- \\LibMelanie\\Api\\Melanie2\\Addressbook&#45;&gt;\\LibMelanie\\Lib\\Melanie2Object -->
<g id="edge68" class="edge"><title>\\LibMelanie\\Api\\Melanie2\\Addressbook&#45;&gt;\\LibMelanie\\Lib\\Melanie2Object</title>
<path fill="none" stroke="black" d="M276.483,-1935.91C253.705,-1933.53 227.078,-1926.68 210,-1909 113.463,-1809.07 233.704,-1710.76 146,-1603 145.027,-1601.8 143.991,-1600.66 142.901,-1599.57"/>
<polygon fill="none" stroke="black" points="144.951,-1596.72 135.016,-1593.04 140.488,-1602.11 144.951,-1596.72"/>
</g>
<!-- \\LibMelanie\\Api\\Melanie2\\Task -->
<g id="node19" class="node"><title>\\LibMelanie\\Api\\Melanie2\\Task</title>
<polygon fill="none" stroke="black" points="347,-1900 293,-1900 293,-1864 347,-1864 347,-1900"/>
<text text-anchor="middle" x="320" y="-1879.1" font-family="Times Roman,serif" font-size="11.00">Task</text>
</g>
<!-- \\LibMelanie\\Api\\Melanie2\\Task&#45;&gt;\\LibMelanie\\Lib\\Melanie2Object -->
<g id="edge78" class="edge"><title>\\LibMelanie\\Api\\Melanie2\\Task&#45;&gt;\\LibMelanie\\Lib\\Melanie2Object</title>
<path fill="none" stroke="black" d="M292.728,-1882.75C267.861,-1881.9 231.778,-1876.6 210,-1855 127.963,-1773.62 220.831,-1691.05 146,-1603 145.026,-1601.85 143.994,-1600.75 142.913,-1599.7"/>
<polygon fill="none" stroke="black" points="145.11,-1596.98 135.143,-1593.38 140.693,-1602.41 145.11,-1596.98"/>
</g>
<!-- \\LibMelanie\\Api\\Melanie2\\User -->
<g id="node20" class="node"><title>\\LibMelanie\\Api\\Melanie2\\User</title>
<polygon fill="none" stroke="black" points="347,-1846 293,-1846 293,-1810 347,-1810 347,-1846"/>
<text text-anchor="middle" x="320" y="-1825.1" font-family="Times Roman,serif" font-size="11.00">User</text>
</g>
<!-- \\LibMelanie\\Api\\Melanie2\\User&#45;&gt;\\LibMelanie\\Lib\\Melanie2Object -->
<g id="edge84" class="edge"><title>\\LibMelanie\\Api\\Melanie2\\User&#45;&gt;\\LibMelanie\\Lib\\Melanie2Object</title>
<path fill="none" stroke="black" d="M292.947,-1825.35C268.234,-1821.55 232.255,-1812.32 210,-1790 147.974,-1727.8 205.55,-1667.58 146,-1603 145.105,-1602.03 144.168,-1601.09 143.196,-1600.19"/>
<polygon fill="none" stroke="black" points="145.16,-1597.28 135.133,-1593.86 140.837,-1602.78 145.16,-1597.28"/>
</g>
<!-- \\LibMelanie\\Objects\\UserMelanie -->
<g id="node22" class="node"><title>\\LibMelanie\\Objects\\UserMelanie</title>
<polygon fill="none" stroke="black" points="361,-1756 279,-1756 279,-1720 361,-1720 361,-1756"/>
<text text-anchor="middle" x="320" y="-1735.1" font-family="Times Roman,serif" font-size="11.00">UserMelanie</text>
</g>
<!-- \\LibMelanie\\Objects\\EventMelanie -->
<g id="node23" class="node"><title>\\LibMelanie\\Objects\\EventMelanie</title>
<polygon fill="none" stroke="black" points="364,-1432 276,-1432 276,-1396 364,-1396 364,-1432"/>
<text text-anchor="middle" x="320" y="-1411.1" font-family="Times Roman,serif" font-size="11.00">EventMelanie</text>
</g>
<!-- \\LibMelanie\\Lib\\MagicObject -->
<g id="node51" class="node"><title>\\LibMelanie\\Lib\\MagicObject</title>
<polygon fill="none" stroke="black" points="126,-1378 42,-1378 42,-1342 126,-1342 126,-1378"/>
<text text-anchor="start" x="54" y="-1365.43" font-family="Times Roman,serif" font-size="11.00">«abstract»</text>
<text text-anchor="start" x="50.5" y="-1352.23" font-family="Times Roman,serif" font-size="11.00">MagicObject</text>
</g>
<!-- \\LibMelanie\\Objects\\EventMelanie&#45;&gt;\\LibMelanie\\Lib\\MagicObject -->
<g id="edge16" class="edge"><title>\\LibMelanie\\Objects\\EventMelanie&#45;&gt;\\LibMelanie\\Lib\\MagicObject</title>
<path fill="none" stroke="black" d="M275.333,-1403.78C235.705,-1394.71 177.795,-1381.46 136.076,-1371.92"/>
<polygon fill="none" stroke="black" points="136.634,-1368.45 126.105,-1369.63 135.073,-1375.28 136.634,-1368.45"/>
</g>
<!-- \\LibMelanie\\Interfaces\\IObjectMelanie -->
<g id="node65" class="node"><title>\\LibMelanie\\Interfaces\\IObjectMelanie</title>
<polygon fill="none" stroke="black" points="131,-1242 37,-1242 37,-1206 131,-1206 131,-1242"/>
<text text-anchor="middle" x="84" y="-1221.1" font-family="Times Roman,serif" font-size="11.00">IObjectMelanie</text>
</g>
<!-- \\LibMelanie\\Objects\\EventMelanie&#45;&gt;\\LibMelanie\\Interfaces\\IObjectMelanie -->
<g id="edge18" class="edge"><title>\\LibMelanie\\Objects\\EventMelanie&#45;&gt;\\LibMelanie\\Interfaces\\IObjectMelanie</title>
<path fill="none" stroke="black" stroke-dasharray="1,5" d="M275.284,-1411.15C253.794,-1407.88 228.71,-1401.05 210,-1387 164.468,-1352.8 182.597,-1319.63 146,-1276 137.748,-1266.16 127.484,-1256.72 117.697,-1248.64"/>
<polygon fill="none" stroke="black" points="119.64,-1245.72 109.644,-1242.21 115.268,-1251.18 119.64,-1245.72"/>
</g>
<!-- \\LibMelanie\\Objects\\HistoryMelanie -->
<g id="node24" class="node"><title>\\LibMelanie\\Objects\\HistoryMelanie</title>
<polygon fill="none" stroke="black" points="368,-1378 272,-1378 272,-1342 368,-1342 368,-1378"/>
<text text-anchor="middle" x="320" y="-1357.1" font-family="Times Roman,serif" font-size="11.00">HistoryMelanie</text>
</g>
<!-- \\LibMelanie\\Objects\\HistoryMelanie&#45;&gt;\\LibMelanie\\Lib\\MagicObject -->
<g id="edge20" class="edge"><title>\\LibMelanie\\Objects\\HistoryMelanie&#45;&gt;\\LibMelanie\\Lib\\MagicObject</title>
<path fill="none" stroke="black" d="M271.957,-1360C232.532,-1360 176.8,-1360 136.266,-1360"/>
<polygon fill="none" stroke="black" points="136.046,-1356.5 126.046,-1360 136.046,-1363.5 136.046,-1356.5"/>
</g>
<!-- \\LibMelanie\\Objects\\HistoryMelanie&#45;&gt;\\LibMelanie\\Interfaces\\IObjectMelanie -->
<g id="edge22" class="edge"><title>\\LibMelanie\\Objects\\HistoryMelanie&#45;&gt;\\LibMelanie\\Interfaces\\IObjectMelanie</title>
<path fill="none" stroke="black" stroke-dasharray="1,5" d="M271.74,-1351.61C251.88,-1346.96 229.102,-1340.03 210,-1330 177.05,-1312.7 174.48,-1299.96 146,-1276 135.396,-1267.08 123.76,-1257.31 113.461,-1248.68"/>
<polygon fill="none" stroke="black" points="115.445,-1245.78 105.533,-1242.03 110.948,-1251.14 115.445,-1245.78"/>
</g>
<!-- \\LibMelanie\\Objects\\CalendarMelanie -->
<g id="node25" class="node"><title>\\LibMelanie\\Objects\\CalendarMelanie</title>
<polygon fill="none" stroke="black" points="373,-1702 267,-1702 267,-1666 373,-1666 373,-1702"/>
<text text-anchor="middle" x="320" y="-1681.1" font-family="Times Roman,serif" font-size="11.00">CalendarMelanie</text>
</g>
<!-- \\LibMelanie\\Objects\\CalendarMelanie&#45;&gt;\\LibMelanie\\Lib\\MagicObject -->
<g id="edge28" class="edge"><title>\\LibMelanie\\Objects\\CalendarMelanie&#45;&gt;\\LibMelanie\\Lib\\MagicObject</title>
<path fill="none" stroke="black" d="M266.929,-1682.43C246.669,-1679.17 224.888,-1672.01 210,-1657 123.143,-1569.45 225.109,-1481.61 146,-1387 142.87,-1383.26 139.122,-1380.02 135.039,-1377.22"/>
<polygon fill="none" stroke="black" points="136.673,-1374.12 126.28,-1372.06 133.124,-1380.15 136.673,-1374.12"/>
</g>
<!-- \\LibMelanie\\Objects\\CalendarMelanie&#45;&gt;\\LibMelanie\\Interfaces\\IObjectMelanie -->
<g id="edge30" class="edge"><title>\\LibMelanie\\Objects\\CalendarMelanie&#45;&gt;\\LibMelanie\\Interfaces\\IObjectMelanie</title>
<path fill="none" stroke="black" stroke-dasharray="1,5" d="M266.986,-1683.01C246.487,-1679.87 224.516,-1672.64 210,-1657 93.1771,-1531.16 231.266,-1425.04 146,-1276 140.011,-1265.53 131.066,-1256.24 121.821,-1248.5"/>
<polygon fill="none" stroke="black" points="123.715,-1245.54 113.687,-1242.12 119.394,-1251.05 123.715,-1245.54"/>
</g>
<!-- \\LibMelanie\\Objects\\TaskslistMelanie -->
<g id="node26" class="node"><title>\\LibMelanie\\Objects\\TaskslistMelanie</title>
<polygon fill="none" stroke="black" points="371,-1648 269,-1648 269,-1612 371,-1612 371,-1648"/>
<text text-anchor="middle" x="320" y="-1627.1" font-family="Times Roman,serif" font-size="11.00">TaskslistMelanie</text>
</g>
<!-- \\LibMelanie\\Objects\\TaskslistMelanie&#45;&gt;\\LibMelanie\\Lib\\MagicObject -->
<g id="edge62" class="edge"><title>\\LibMelanie\\Objects\\TaskslistMelanie&#45;&gt;\\LibMelanie\\Lib\\MagicObject</title>
<path fill="none" stroke="black" d="M268.468,-1628.19C247.959,-1624.95 225.582,-1617.86 210,-1603 137.544,-1533.9 212.327,-1462.01 146,-1387 142.768,-1383.34 138.951,-1380.16 134.824,-1377.4"/>
<polygon fill="none" stroke="black" points="136.415,-1374.28 126.007,-1372.3 132.908,-1380.34 136.415,-1374.28"/>
</g>
<!-- \\LibMelanie\\Objects\\TaskslistMelanie&#45;&gt;\\LibMelanie\\Interfaces\\IObjectMelanie -->
<g id="edge64" class="edge"><title>\\LibMelanie\\Objects\\TaskslistMelanie&#45;&gt;\\LibMelanie\\Interfaces\\IObjectMelanie</title>
<path fill="none" stroke="black" stroke-dasharray="1,5" d="M268.324,-1628.99C247.541,-1625.9 224.996,-1618.72 210,-1603 107.796,-1495.83 221.259,-1403.54 146,-1276 139.871,-1265.61 130.88,-1256.34 121.636,-1248.61"/>
<polygon fill="none" stroke="black" points="123.536,-1245.65 113.512,-1242.22 119.209,-1251.16 123.536,-1245.65"/>
</g>
<!-- \\LibMelanie\\Objects\\ObjectMelanie -->
<g id="node27" class="node"><title>\\LibMelanie\\Objects\\ObjectMelanie</title>
<polygon fill="none" stroke="black" points="366,-1594 274,-1594 274,-1558 366,-1558 366,-1594"/>
<text text-anchor="middle" x="320" y="-1573.1" font-family="Times Roman,serif" font-size="11.00">ObjectMelanie</text>
</g>
<!-- \\LibMelanie\\Objects\\ObjectMelanie&#45;&gt;\\LibMelanie\\Lib\\MagicObject -->
<g id="edge70" class="edge"><title>\\LibMelanie\\Objects\\ObjectMelanie&#45;&gt;\\LibMelanie\\Lib\\MagicObject</title>
<path fill="none" stroke="black" d="M273.257,-1574.15C251.799,-1571.07 227.333,-1564.13 210,-1549 151.678,-1498.09 199.789,-1442.68 146,-1387 142.793,-1383.68 139.109,-1380.74 135.17,-1378.15"/>
<polygon fill="none" stroke="black" points="136.64,-1374.96 126.226,-1373.01 133.15,-1381.03 136.64,-1374.96"/>
</g>
<!-- \\LibMelanie\\Objects\\ObjectMelanie&#45;&gt;\\LibMelanie\\Interfaces\\IObjectMelanie -->
<g id="edge72" class="edge"><title>\\LibMelanie\\Objects\\ObjectMelanie&#45;&gt;\\LibMelanie\\Interfaces\\IObjectMelanie</title>
<path fill="none" stroke="black" stroke-dasharray="1,5" d="M273.351,-1575.37C251.386,-1572.64 226.46,-1565.63 210,-1549 122.339,-1460.42 211.307,-1382.14 146,-1276 139.558,-1265.53 130.277,-1256.14 120.85,-1248.32"/>
<polygon fill="none" stroke="black" points="122.984,-1245.55 112.956,-1242.13 118.664,-1251.05 122.984,-1245.55"/>
</g>
<!-- \\LibMelanie\\Objects\\AttachmentMelanie -->
<g id="node28" class="node"><title>\\LibMelanie\\Objects\\AttachmentMelanie</title>
<polygon fill="none" stroke="black" points="381,-1540 259,-1540 259,-1504 381,-1504 381,-1540"/>
<text text-anchor="middle" x="320" y="-1519.1" font-family="Times Roman,serif" font-size="11.00">AttachmentMelanie</text>
</g>
<!-- \\LibMelanie\\Objects\\AttachmentMelanie&#45;&gt;\\LibMelanie\\Lib\\MagicObject -->
<g id="edge74" class="edge"><title>\\LibMelanie\\Objects\\AttachmentMelanie&#45;&gt;\\LibMelanie\\Lib\\MagicObject</title>
<path fill="none" stroke="black" d="M258.3,-1515.77C241.436,-1511.8 223.977,-1505.37 210,-1495 165.189,-1461.76 187.826,-1423.93 146,-1387 142.642,-1384.04 138.907,-1381.35 134.984,-1378.94"/>
<polygon fill="none" stroke="black" points="136.609,-1375.84 126.163,-1374.07 133.224,-1381.97 136.609,-1375.84"/>
</g>
<!-- \\LibMelanie\\Objects\\AttachmentMelanie&#45;&gt;\\LibMelanie\\Interfaces\\IObjectMelanie -->
<g id="edge76" class="edge"><title>\\LibMelanie\\Objects\\AttachmentMelanie&#45;&gt;\\LibMelanie\\Interfaces\\IObjectMelanie</title>
<path fill="none" stroke="black" stroke-dasharray="1,5" d="M258.498,-1518.36C240.95,-1514.52 223.068,-1507.51 210,-1495 136.749,-1424.88 201.454,-1360.9 146,-1276 139.218,-1265.62 129.74,-1256.21 120.233,-1248.34"/>
<polygon fill="none" stroke="black" points="122.323,-1245.53 112.298,-1242.11 117.998,-1251.04 122.323,-1245.53"/>
</g>
<!-- \\LibMelanie\\Objects\\AddressbookMelanie -->
<g id="node29" class="node"><title>\\LibMelanie\\Objects\\AddressbookMelanie</title>
<polygon fill="none" stroke="black" points="384,-1486 256,-1486 256,-1450 384,-1450 384,-1486"/>
<text text-anchor="middle" x="320" y="-1465.1" font-family="Times Roman,serif" font-size="11.00">AddressbookMelanie</text>
</g>
<!-- \\LibMelanie\\Objects\\AddressbookMelanie&#45;&gt;\\LibMelanie\\Lib\\MagicObject -->
<g id="edge80" class="edge"><title>\\LibMelanie\\Objects\\AddressbookMelanie&#45;&gt;\\LibMelanie\\Lib\\MagicObject</title>
<path fill="none" stroke="black" d="M255.969,-1457.53C240.42,-1453.58 224.195,-1448.22 210,-1441 176.832,-1424.12 177.615,-1406.64 146,-1387 142.618,-1384.9 139.045,-1382.88 135.39,-1380.96"/>
<polygon fill="none" stroke="black" points="136.712,-1377.71 126.199,-1376.4 133.599,-1383.98 136.712,-1377.71"/>
</g>
<!-- \\LibMelanie\\Objects\\AddressbookMelanie&#45;&gt;\\LibMelanie\\Interfaces\\IObjectMelanie -->
<g id="edge82" class="edge"><title>\\LibMelanie\\Objects\\AddressbookMelanie&#45;&gt;\\LibMelanie\\Interfaces\\IObjectMelanie</title>
<path fill="none" stroke="black" stroke-dasharray="1,5" d="M255.996,-1462.93C239.482,-1458.95 222.779,-1452.23 210,-1441 150.904,-1389.09 191.795,-1339.95 146,-1276 138.715,-1265.83 128.995,-1256.44 119.416,-1248.52"/>
<polygon fill="none" stroke="black" points="121.474,-1245.69 111.459,-1242.23 117.133,-1251.18 121.474,-1245.69"/>
</g>
<!-- \\LibMelanie\\Sql\\SqlCalendarRequests -->
<g id="node31" class="node"><title>\\LibMelanie\\Sql\\SqlCalendarRequests</title>
<polygon fill="none" stroke="black" points="385,-1296 255,-1296 255,-1260 385,-1260 385,-1296"/>
<text text-anchor="middle" x="320" y="-1275.1" font-family="Times Roman,serif" font-size="11.00">SqlCalendarRequests</text>
</g>
<!-- \\LibMelanie\\Sql\\SqlHistoryRequests -->
<g id="node32" class="node"><title>\\LibMelanie\\Sql\\SqlHistoryRequests</title>
<polygon fill="none" stroke="black" points="381,-1242 259,-1242 259,-1206 381,-1206 381,-1242"/>
<text text-anchor="middle" x="320" y="-1221.1" font-family="Times Roman,serif" font-size="11.00">SqlHistoryRequests</text>
</g>
<!-- \\LibMelanie\\Sql\\SqlAttachmentRequests -->
<g id="node33" class="node"><title>\\LibMelanie\\Sql\\SqlAttachmentRequests</title>
<polygon fill="none" stroke="black" points="394,-1188 246,-1188 246,-1152 394,-1152 394,-1188"/>
<text text-anchor="middle" x="320" y="-1167.1" font-family="Times Roman,serif" font-size="11.00">SqlAttachmentRequests</text>
</g>
<!-- \\LibMelanie\\Sql\\SqlObjectRequests -->
<g id="node34" class="node"><title>\\LibMelanie\\Sql\\SqlObjectRequests</title>
<polygon fill="none" stroke="black" points="379,-1134 261,-1134 261,-1098 379,-1098 379,-1134"/>
<text text-anchor="middle" x="320" y="-1113.1" font-family="Times Roman,serif" font-size="11.00">SqlObjectRequests</text>
</g>
<!-- \\LibMelanie\\Sql\\SqlTaskRequests -->
<g id="node35" class="node"><title>\\LibMelanie\\Sql\\SqlTaskRequests</title>
<polygon fill="none" stroke="black" points="373,-1080 267,-1080 267,-1044 373,-1044 373,-1080"/>
<text text-anchor="middle" x="320" y="-1059.1" font-family="Times Roman,serif" font-size="11.00">SqlTaskRequests</text>
</g>
<!-- \\LibMelanie\\Sql\\SqlMelanieRequests -->
<g id="node36" class="node"><title>\\LibMelanie\\Sql\\SqlMelanieRequests</title>
<polygon fill="none" stroke="black" points="382,-1026 258,-1026 258,-990 382,-990 382,-1026"/>
<text text-anchor="middle" x="320" y="-1005.1" font-family="Times Roman,serif" font-size="11.00">SqlMelanieRequests</text>
</g>
<!-- \\LibMelanie\\Sql\\DBMelanie -->
<g id="node37" class="node"><title>\\LibMelanie\\Sql\\DBMelanie</title>
<polygon fill="none" stroke="black" points="357,-972 283,-972 283,-936 357,-936 357,-972"/>
<text text-anchor="middle" x="320" y="-951.1" font-family="Times Roman,serif" font-size="11.00">DBMelanie</text>
</g>
<!-- \\LibMelanie\\Sql\\Sql -->
<g id="node38" class="node"><title>\\LibMelanie\\Sql\\Sql</title>
<polygon fill="none" stroke="black" points="347,-918 293,-918 293,-882 347,-882 347,-918"/>
<text text-anchor="middle" x="320" y="-897.1" font-family="Times Roman,serif" font-size="11.00">Sql</text>
</g>
<!-- \\LibMelanie\\Sql\\SqlContactRequests -->
<g id="node39" class="node"><title>\\LibMelanie\\Sql\\SqlContactRequests</title>
<polygon fill="none" stroke="black" points="383,-864 257,-864 257,-828 383,-828 383,-864"/>
<text text-anchor="middle" x="320" y="-843.1" font-family="Times Roman,serif" font-size="11.00">SqlContactRequests</text>
</g>
<!-- \\LibMelanie\\Sql\\SqlObjectPropertyRequests -->
<g id="node40" class="node"><title>\\LibMelanie\\Sql\\SqlObjectPropertyRequests</title>
<polygon fill="none" stroke="black" points="402,-810 238,-810 238,-774 402,-774 402,-810"/>
<text text-anchor="middle" x="320" y="-789.1" font-family="Times Roman,serif" font-size="11.00">SqlObjectPropertyRequests</text>
</g>
<!-- \\LibMelanie\\Ldap\\Ldap -->
<g id="node42" class="node"><title>\\LibMelanie\\Ldap\\Ldap</title>
<polygon fill="none" stroke="black" points="347,-728 293,-728 293,-692 347,-692 347,-728"/>
<text text-anchor="middle" x="320" y="-707.1" font-family="Times Roman,serif" font-size="11.00">Ldap</text>
</g>
<!-- \\LibMelanie\\Ldap\\LDAPMelanie -->
<g id="node43" class="node"><title>\\LibMelanie\\Ldap\\LDAPMelanie</title>
<polygon fill="none" stroke="black" points="363,-674 277,-674 277,-638 363,-638 363,-674"/>
<text text-anchor="middle" x="320" y="-653.1" font-family="Times Roman,serif" font-size="11.00">LDAPMelanie</text>
</g>
<!-- \\LibMelanie\\Log\\M2Log -->
<g id="node45" class="node"><title>\\LibMelanie\\Log\\M2Log</title>
<polygon fill="none" stroke="black" points="347,-592 293,-592 293,-556 347,-556 347,-592"/>
<text text-anchor="middle" x="320" y="-571.1" font-family="Times Roman,serif" font-size="11.00">M2Log</text>
</g>
<!-- \\LibMelanie\\Log\\Log -->
<g id="node46" class="node"><title>\\LibMelanie\\Log\\Log</title>
<polygon fill="none" stroke="black" points="347,-538 293,-538 293,-502 347,-502 347,-538"/>
<text text-anchor="middle" x="320" y="-517.1" font-family="Times Roman,serif" font-size="11.00">Log</text>
</g>
<!-- \\LibMelanie\\Lib\\TaskToICS -->
<g id="node48" class="node"><title>\\LibMelanie\\Lib\\TaskToICS</title>
<polygon fill="none" stroke="black" points="118,-1756 50,-1756 50,-1720 118,-1720 118,-1756"/>
<text text-anchor="middle" x="84" y="-1735.1" font-family="Times Roman,serif" font-size="11.00">TaskToICS</text>
</g>
<!-- \\LibMelanie\\Lib\\ICSToEvent -->
<g id="node49" class="node"><title>\\LibMelanie\\Lib\\ICSToEvent</title>
<polygon fill="none" stroke="black" points="122,-1702 46,-1702 46,-1666 122,-1666 122,-1702"/>
<text text-anchor="middle" x="84" y="-1681.1" font-family="Times Roman,serif" font-size="11.00">ICSToEvent</text>
</g>
<!-- \\LibMelanie\\Lib\\EventToICS -->
<g id="node50" class="node"><title>\\LibMelanie\\Lib\\EventToICS</title>
<polygon fill="none" stroke="black" points="122,-1648 46,-1648 46,-1612 122,-1612 122,-1648"/>
<text text-anchor="middle" x="84" y="-1627.1" font-family="Times Roman,serif" font-size="11.00">EventToICS</text>
</g>
<!-- \\LibMelanie\\Lib\\Selaforme -->
<g id="node52" class="node"><title>\\LibMelanie\\Lib\\Selaforme</title>
<polygon fill="none" stroke="black" points="120,-1540 48,-1540 48,-1504 120,-1504 120,-1540"/>
<text text-anchor="middle" x="84" y="-1519.1" font-family="Times Roman,serif" font-size="11.00">Selaforme</text>
</g>
<!-- \\LibMelanie\\Lib\\ICSToTask -->
<g id="node53" class="node"><title>\\LibMelanie\\Lib\\ICSToTask</title>
<polygon fill="none" stroke="black" points="118,-1486 50,-1486 50,-1450 118,-1450 118,-1486"/>
<text text-anchor="middle" x="84" y="-1465.1" font-family="Times Roman,serif" font-size="11.00">ICSToTask</text>
</g>
<!-- \\LibMelanie\\Lib\\EventToICSSAVE -->
<g id="node54" class="node"><title>\\LibMelanie\\Lib\\EventToICSSAVE</title>
<polygon fill="none" stroke="black" points="136,-1432 32,-1432 32,-1396 136,-1396 136,-1432"/>
<text text-anchor="middle" x="84" y="-1411.1" font-family="Times Roman,serif" font-size="11.00">EventToICSSAVE</text>
</g>
<!-- \\LibMelanie\\Lib\\ICS -->
<g id="node56" class="node"><title>\\LibMelanie\\Lib\\ICS</title>
<polygon fill="none" stroke="black" points="111,-1324 57,-1324 57,-1288 111,-1288 111,-1324"/>
<text text-anchor="middle" x="84" y="-1303.1" font-family="Times Roman,serif" font-size="11.00">ICS</text>
</g>
<!-- \\LibMelanie\\Exceptions\\UndefinedMappingException -->
<g id="node58" class="node"><title>\\LibMelanie\\Exceptions\\UndefinedMappingException</title>
<polygon fill="none" stroke="black" points="406,-456 234,-456 234,-420 406,-420 406,-456"/>
<text text-anchor="middle" x="320" y="-435.1" font-family="Times Roman,serif" font-size="11.00">UndefinedMappingException</text>
</g>
<!-- \\Exception -->
<g id="node75" class="node"><title>\\Exception</title>
<ellipse fill="none" stroke="black" cx="84" cy="-18" rx="61.8445" ry="18"/>
<text text-anchor="middle" x="84" y="-13.9" font-family="Times Roman,serif" font-size="14.00" fill="gray">\Exception</text>
</g>
<!-- \\LibMelanie\\Exceptions\\UndefinedMappingException&#45;&gt;\\Exception -->
<g id="edge26" class="edge"><title>\\LibMelanie\\Exceptions\\UndefinedMappingException&#45;&gt;\\Exception</title>
<path fill="none" stroke="black" d="M233.821,-426.242C225.083,-422.411 216.902,-417.438 210,-411 154.967,-359.668 105.41,-127.953 89.3981,-46.4568"/>
<polygon fill="none" stroke="black" points="92.7907,-45.5666 87.4469,-36.4181 85.9193,-46.9022 92.7907,-45.5666"/>
</g>
<!-- \\LibMelanie\\Exceptions\\PropertyDoesNotExistException -->
<g id="node59" class="node"><title>\\LibMelanie\\Exceptions\\PropertyDoesNotExistException</title>
<polygon fill="none" stroke="black" points="415,-402 225,-402 225,-366 415,-366 415,-402"/>
<text text-anchor="middle" x="320" y="-381.1" font-family="Times Roman,serif" font-size="11.00">PropertyDoesNotExistException</text>
</g>
<!-- \\LibMelanie\\Exceptions\\PropertyDoesNotExistException&#45;&gt;\\Exception -->
<g id="edge32" class="edge"><title>\\LibMelanie\\Exceptions\\PropertyDoesNotExistException&#45;&gt;\\Exception</title>
<path fill="none" stroke="black" d="M224.476,-367.201C219.287,-364.3 214.405,-360.924 210,-357 115.829,-273.095 91.8653,-112.136 85.9114,-46.7115"/>
<polygon fill="none" stroke="black" points="89.3664,-46.0246 85.0488,-36.3495 82.3906,-46.6054 89.3664,-46.0246"/>
</g>
<!-- \\LibMelanie\\Exceptions\\ObjectMelanieUndefinedException -->
<g id="node60" class="node"><title>\\LibMelanie\\Exceptions\\ObjectMelanieUndefinedException</title>
<polygon fill="none" stroke="black" points="421,-348 219,-348 219,-312 421,-312 421,-348"/>
<text text-anchor="middle" x="320" y="-327.1" font-family="Times Roman,serif" font-size="11.00">ObjectMelanieUndefinedException</text>
</g>
<!-- \\LibMelanie\\Exceptions\\ObjectMelanieUndefinedException&#45;&gt;\\Exception -->
<g id="edge36" class="edge"><title>\\LibMelanie\\Exceptions\\ObjectMelanieUndefinedException&#45;&gt;\\Exception</title>
<path fill="none" stroke="black" d="M222.921,-311.879C218.339,-309.291 213.994,-306.347 210,-303 128.789,-234.928 98.0883,-104.175 88.147,-46.5124"/>
<polygon fill="none" stroke="black" points="91.5464,-45.6132 86.4756,-36.3107 84.6385,-46.745 91.5464,-45.6132"/>
</g>
<!-- \\LibMelanie\\Exceptions\\Melanie2Exception -->
<g id="node61" class="node"><title>\\LibMelanie\\Exceptions\\Melanie2Exception</title>
<polygon fill="none" stroke="black" points="379,-294 261,-294 261,-258 379,-258 379,-294"/>
<text text-anchor="middle" x="320" y="-273.1" font-family="Times Roman,serif" font-size="11.00">Melanie2Exception</text>
</g>
<!-- \\LibMelanie\\Exceptions\\Melanie2Exception&#45;&gt;\\Exception -->
<g id="edge38" class="edge"><title>\\LibMelanie\\Exceptions\\Melanie2Exception&#45;&gt;\\Exception</title>
<path fill="none" stroke="black" d="M260.343,-270.606C242.772,-266.698 224.413,-260.096 210,-249 141.372,-196.168 105.287,-94.8944 91.1836,-45.9053"/>
<polygon fill="none" stroke="black" points="94.4818,-44.702 88.4299,-36.0058 87.7379,-46.578 94.4818,-44.702"/>
</g>
<!-- \\LibMelanie\\Exceptions\\UndefinedPrimaryKeyException -->
<g id="node62" class="node"><title>\\LibMelanie\\Exceptions\\UndefinedPrimaryKeyException</title>
<polygon fill="none" stroke="black" points="414,-240 226,-240 226,-204 414,-204 414,-240"/>
<text text-anchor="middle" x="320" y="-219.1" font-family="Times Roman,serif" font-size="11.00">UndefinedPrimaryKeyException</text>
</g>
<!-- \\LibMelanie\\Exceptions\\UndefinedPrimaryKeyException&#45;&gt;\\Exception -->
<g id="edge48" class="edge"><title>\\LibMelanie\\Exceptions\\UndefinedPrimaryKeyException&#45;&gt;\\Exception</title>
<path fill="none" stroke="black" d="M225.863,-203.9C220.303,-201.318 214.962,-198.369 210,-195 153.756,-156.816 114.255,-84.6691 95.7991,-45.3051"/>
<polygon fill="none" stroke="black" points="98.9055,-43.6821 91.5629,-36.0443 92.5399,-46.594 98.9055,-43.6821"/>
</g>
<!-- \\LibMelanie\\Exceptions\\Melanie2DatabaseException -->
<g id="node63" class="node"><title>\\LibMelanie\\Exceptions\\Melanie2DatabaseException</title>
<polygon fill="none" stroke="black" points="406,-186 234,-186 234,-150 406,-150 406,-186"/>
<text text-anchor="middle" x="320" y="-165.1" font-family="Times Roman,serif" font-size="11.00">Melanie2DatabaseException</text>
</g>
<!-- \\LibMelanie\\Exceptions\\Melanie2DatabaseException&#45;&gt;\\Exception -->
<g id="edge54" class="edge"><title>\\LibMelanie\\Exceptions\\Melanie2DatabaseException&#45;&gt;\\Exception</title>
<path fill="none" stroke="black" d="M236.252,-149.909C227.127,-146.558 218.189,-142.62 210,-138 166.843,-113.653 127.261,-71.24 104.391,-43.908"/>
<polygon fill="none" stroke="black" points="106.9,-41.4477 97.845,-35.9465 101.493,-45.8936 106.9,-41.4477"/>
</g>
<!-- \\LibMelanie\\Cache\\Cache -->
<g id="node67" class="node"><title>\\LibMelanie\\Cache\\Cache</title>
<polygon fill="none" stroke="black" points="347,-104 293,-104 293,-68 347,-68 347,-104"/>
<text text-anchor="middle" x="320" y="-83.1" font-family="Times Roman,serif" font-size="11.00">Cache</text>
</g>
<!-- Exception -->
<g id="node105" class="node"><title>Exception</title>
<ellipse fill="none" stroke="black" cx="320" cy="-2748" rx="57.8712" ry="18"/>
<text text-anchor="middle" x="320" y="-2743.9" font-family="Times Roman,serif" font-size="14.00">Exception</text>
</g>
</g>
</svg>
